<svg width="55" height="41" viewBox="0 0 55 41" fill="none" xmlns="http://www.w3.org/2000/svg">
<g clip-path="url(#clip0_932_48)">
<path d="M13.6382 33.2003C13.6111 33.2066 13.5867 33.2178 13.5651 33.2341C13.2266 33.4925 12.8871 33.7506 12.5464 34.0086C12.5423 34.0117 12.539 34.0158 12.5369 34.0205C12.5347 34.0252 12.5338 34.0303 12.5341 34.0354C12.5344 34.0406 12.536 34.0455 12.5388 34.0499C12.5415 34.0543 12.5453 34.058 12.5498 34.0606C14.0144 34.9023 15.5409 35.6168 17.129 36.2042C17.1345 36.2062 17.1396 36.2094 17.1438 36.2135C17.148 36.2175 17.1512 36.2224 17.1534 36.2279C17.1555 36.2333 17.1564 36.2391 17.1561 36.2448C17.1558 36.2506 17.1542 36.2563 17.1515 36.2614C16.3006 37.8971 15.3189 39.4529 14.2064 40.9288C14.1892 40.9516 14.1667 40.9588 14.1389 40.9506C9.14535 39.4541 4.5489 37.1883 0.349542 34.1532C0.329037 34.1385 0.312831 34.126 0.300925 34.1159C0.292106 34.1083 0.287145 34.0987 0.286042 34.0872C-0.188552 29.5099 0.0320435 24.892 0.983216 20.3859C2.25056 14.3799 4.84711 8.63928 8.37597 3.53395C8.46328 3.40747 8.77119 3.31188 8.97029 3.22572C12.4255 1.73203 16.0146 0.670346 19.7375 0.0406602C19.748 0.0388647 19.7589 0.0403414 19.7685 0.0448857C19.7782 0.04943 19.7862 0.0568165 19.7914 0.066021C20.3091 0.984213 20.7848 1.923 21.2185 2.88237C21.2323 2.91315 21.2562 2.92605 21.2899 2.92106C25.4383 2.32519 29.5865 2.32725 33.7345 2.92724C33.7464 2.92898 33.7562 2.92518 33.7639 2.91586C33.7787 2.89765 33.7928 2.87327 33.8063 2.84271C34.2261 1.8959 34.6891 0.972616 35.1953 0.0728489C35.2017 0.0614368 35.2116 0.0522677 35.2235 0.0466157C35.2354 0.0409636 35.2488 0.0391093 35.2618 0.0413104C39.1609 0.699825 42.9107 1.83109 46.5112 3.43511C46.5446 3.44974 46.5697 3.46697 46.5915 3.49819C49.1633 7.20282 51.2376 11.2254 52.6743 15.4854C54.6927 21.4699 55.3671 27.8046 54.7198 34.0918C54.7187 34.1031 54.7136 34.1121 54.7043 34.1188C50.4833 37.1762 45.8631 39.4556 40.8435 40.9571C40.8215 40.9638 40.8035 40.958 40.7896 40.9395C39.6711 39.4541 38.6837 37.8883 37.8276 36.2423C37.8265 36.2402 37.8259 36.2378 37.8258 36.2355C37.8257 36.2331 37.8261 36.2307 37.8269 36.2285C37.8278 36.2263 37.8291 36.2243 37.8308 36.2227C37.8326 36.221 37.8346 36.2197 37.8369 36.2188C39.4343 35.631 40.9696 34.9145 42.4429 34.0694C42.4487 34.0661 42.4536 34.0615 42.4571 34.0559C42.4607 34.0503 42.4627 34.0439 42.4632 34.0373C42.4636 34.0307 42.4624 34.0241 42.4596 34.0181C42.4568 34.012 42.4525 34.0068 42.4472 34.0027L41.3948 33.2012C41.3881 33.1962 41.3802 33.1931 41.3718 33.1922C41.3634 33.1913 41.3549 33.1926 41.3472 33.196C35.0171 36.0729 27.9693 36.926 21.1331 35.5861C18.587 35.0869 16.0993 34.2926 13.6703 33.2032C13.6599 33.1986 13.6492 33.1977 13.6382 33.2003ZM18.3897 27.9067C19.036 27.9067 19.6759 27.7673 20.273 27.4966C20.8701 27.2259 21.4126 26.829 21.8696 26.3288C22.3266 25.8285 22.689 25.2347 22.9364 24.5811C23.1837 23.9274 23.311 23.2269 23.311 22.5195C23.311 21.0907 22.7925 19.7204 21.8696 18.7101C20.9467 17.6998 19.6949 17.1322 18.3897 17.1322C17.0846 17.1322 15.8328 17.6998 14.9099 18.7101C13.987 19.7204 13.4685 21.0907 13.4685 22.5195C13.4685 23.9482 13.987 25.3185 14.9099 26.3288C15.8328 27.3391 17.0846 27.9067 18.3897 27.9067ZM36.6254 27.9067C37.9306 27.9067 39.1823 27.3391 40.1052 26.3288C41.0281 25.3185 41.5466 23.9482 41.5466 22.5195C41.5466 21.0907 41.0281 19.7204 40.1052 18.7101C39.1823 17.6998 37.9306 17.1322 36.6254 17.1322C35.9791 17.1322 35.3392 17.2716 34.7421 17.5423C34.1451 17.813 33.6025 18.2099 33.1456 18.7101C32.6886 19.2104 32.3261 19.8042 32.0788 20.4579C31.8315 21.1115 31.7042 21.812 31.7042 22.5195C31.7042 23.2269 31.8315 23.9274 32.0788 24.5811C32.3261 25.2347 32.6886 25.8285 33.1456 26.3288C33.6025 26.829 34.1451 27.2259 34.7421 27.4966C35.3392 27.7673 35.9791 27.9067 36.6254 27.9067Z" fill="#A76FBE"/>
</g>
<defs>
<clipPath id="clip0_932_48">
<rect width="55" height="41" fill="white"/>
</clipPath>
</defs>
</svg>
