<svg width="48" height="48" viewBox="0 0 48 48" fill="none" xmlns="http://www.w3.org/2000/svg">
<g clip-path="url(#clip0_932_9)">
<path d="M23.8777 0H24.4164C37.3903 0.279779 47.7298 10.6495 48 23.6042V24.4329C47.8957 28.9578 46.6427 33.115 44.2409 36.9046C41.4355 41.3314 37.1778 44.7225 32.2691 46.5401C29.7888 47.4586 27.1782 47.9452 24.4372 48H23.5671C18.8449 47.888 14.5361 46.5358 10.6409 43.9435C7.2232 41.6688 4.37569 38.4411 2.54254 34.7672C0.925967 31.5278 0.078453 28.0873 0 24.4455V23.8571C0.0559116 23.3088 0.276133 22.8614 0.660663 22.5149C1.81326 21.476 3.71536 22.0989 3.97293 23.6619C3.98906 23.7591 3.99989 23.9796 4.00541 24.3232C4.17017 34.6575 12.2523 43.2368 22.5898 43.9485C34.2255 44.7494 44.1305 35.4782 43.9976 23.7762C43.8799 13.4155 35.8296 4.81459 25.4649 4.05547C25.0454 4.02475 24.574 4.00597 24.0507 3.99912C23.8501 3.99669 23.6906 3.98188 23.5724 3.9547C22.1526 3.62751 21.5131 1.95878 22.4102 0.785967C22.7653 0.321878 23.2545 0.0598895 23.8777 0Z" fill="#A76FBE"/>
<path d="M15.5579 5.6828C16.6629 5.6828 17.5588 4.78697 17.5588 3.68191C17.5588 2.57686 16.6629 1.68103 15.5579 1.68103C14.4528 1.68103 13.557 2.57686 13.557 3.68191C13.557 4.78697 14.4528 5.6828 15.5579 5.6828Z" fill="#A76FBE"/>
<path d="M8.44205 10.4149C9.5471 10.4149 10.4429 9.51903 10.4429 8.41397C10.4429 7.30891 9.5471 6.41309 8.44205 6.41309C7.33699 6.41309 6.44116 7.30891 6.44116 8.41397C6.44116 9.51903 7.33699 10.4149 8.44205 10.4149Z" fill="#A76FBE"/>
<path d="M26.0201 20.564C27.3381 21.3454 28.1248 22.8059 27.9842 24.347C27.7346 27.0815 24.9176 28.7642 22.3843 27.6533C21.6155 27.3163 21.009 26.7709 20.5648 26.0171C20.5588 26.0069 20.55 26.0014 20.5382 26.0005C20.41 25.9899 20.2485 26.0045 20.1574 26.0045C18.9333 26.0063 17.7093 26.0063 16.4854 26.0045C16.1268 26.0038 15.9059 25.9993 15.8228 25.9909C14.8021 25.8871 13.9671 25.0292 13.9973 23.9837C14.0297 22.8583 14.8929 22.0037 16.0213 21.9994C17.5263 21.9934 19.0313 21.9924 20.5363 21.9964C20.548 21.9964 20.5568 21.9913 20.5628 21.9812C20.9166 21.3889 21.39 20.9159 21.9829 20.5621C21.9919 20.5568 21.9965 20.5487 21.9965 20.5379C21.9934 18.3798 21.9927 16.2217 21.9945 14.0635C21.9952 13.3835 22.2474 12.8402 22.7513 12.4335C23.9589 11.459 25.8013 12.2108 25.9886 13.7595C25.9988 13.8453 26.0041 14.066 26.0045 14.4218C26.0059 16.4605 26.0061 18.4992 26.0052 20.5379C26.0052 20.5493 26.0102 20.5581 26.0201 20.564Z" fill="#A76FBE"/>
<path d="M3.654 17.5684C4.75887 17.5684 5.65455 16.6727 5.65455 15.5678C5.65455 14.4629 4.75887 13.5673 3.654 13.5673C2.54912 13.5673 1.65344 14.4629 1.65344 15.5678C1.65344 16.6727 2.54912 17.5684 3.654 17.5684Z" fill="#A76FBE"/>
</g>
<defs>
<clipPath id="clip0_932_9">
<rect width="48" height="48" fill="white"/>
</clipPath>
</defs>
</svg>
