<svg width="58" height="58" viewBox="0 0 58 58" fill="none" xmlns="http://www.w3.org/2000/svg">
<path d="M48.9375 17.539V18.8664C48.9375 18.8703 48.9359 18.8741 48.9332 18.8769C48.9304 18.8797 48.9266 18.8812 48.9227 18.8812H9.07732C9.07339 18.8812 9.06962 18.8797 9.06684 18.8769C9.06406 18.8741 9.0625 18.8703 9.0625 18.8664V17.539C9.0625 17.535 9.06094 17.5313 9.05816 17.5285C9.05538 17.5257 9.05161 17.5242 9.04768 17.5242H7.26482C7.26287 17.5242 7.26095 17.5238 7.25915 17.523C7.25735 17.5223 7.25572 17.5212 7.25434 17.5198C7.25297 17.5184 7.25187 17.5168 7.25113 17.515C7.25038 17.5132 7.25 17.5113 7.25 17.5093V12.9963C7.24997 12.9933 7.25088 12.9903 7.2526 12.9878C7.25432 12.9853 7.25677 12.9834 7.25961 12.9823L28.9948 5.13266C28.9981 5.1314 29.0019 5.1314 29.0052 5.13266L50.7404 12.9823C50.7432 12.9834 50.7457 12.9853 50.7474 12.9878C50.7491 12.9903 50.75 12.9933 50.75 12.9963V17.5093C50.75 17.5133 50.7484 17.517 50.7457 17.5198C50.7429 17.5226 50.7391 17.5242 50.7352 17.5242H48.9523C48.9484 17.5242 48.9446 17.5257 48.9418 17.5285C48.9391 17.5313 48.9375 17.535 48.9375 17.539Z" fill="#A76FBE"/>
<path d="M19.0363 42.0059V43.7816C19.0363 43.7866 19.0343 43.7914 19.0308 43.7949C19.0272 43.7984 19.0224 43.8004 19.0175 43.8004H11.7991C11.7941 43.8004 11.7893 43.7984 11.7858 43.7949C11.7823 43.7914 11.7803 43.7866 11.7803 43.7816L11.7835 42.0067C11.7835 42.0017 11.7855 41.997 11.789 41.9934C11.7925 41.9899 11.7973 41.9879 11.8023 41.9879H12.6687C12.6712 41.9879 12.6736 41.9874 12.6759 41.9865C12.6782 41.9855 12.6803 41.9841 12.682 41.9824C12.6838 41.9806 12.6851 41.9786 12.6861 41.9763C12.687 41.974 12.6875 41.9716 12.6875 41.9691V22.5199C12.6875 22.5174 12.687 22.5149 12.6861 22.5127C12.6851 22.5104 12.6838 22.5083 12.682 22.5066C12.6803 22.5048 12.6782 22.5034 12.6759 22.5025C12.6736 22.5015 12.6712 22.501 12.6687 22.501H11.7999C11.7949 22.501 11.7901 22.4991 11.7866 22.4955C11.7831 22.492 11.7811 22.4872 11.7811 22.4822L11.7883 20.7074C11.7883 20.7024 11.7903 20.6976 11.7938 20.6941C11.7973 20.6905 11.8021 20.6885 11.8071 20.6885H19.0175C19.0224 20.6885 19.0272 20.6905 19.0308 20.6941C19.0343 20.6976 19.0363 20.7024 19.0363 20.7074V22.4842C19.0363 22.4892 19.0343 22.494 19.0308 22.4975C19.0272 22.5011 19.0224 22.503 19.0175 22.503L18.1439 22.4998C18.1414 22.4998 18.1389 22.5003 18.1366 22.5013C18.1344 22.5022 18.1323 22.5036 18.1305 22.5053C18.1288 22.5071 18.1274 22.5092 18.1265 22.5115C18.1255 22.5137 18.125 22.5162 18.125 22.5187V41.9695C18.125 41.972 18.1255 41.9744 18.1265 41.9767C18.1274 41.979 18.1288 41.9811 18.1305 41.9828C18.1323 41.9845 18.1344 41.9859 18.1366 41.9869C18.1389 41.9878 18.1414 41.9883 18.1439 41.9883L19.0175 41.9871C19.0224 41.9871 19.0272 41.9891 19.0308 41.9926C19.0343 41.9962 19.0363 42.0009 19.0363 42.0059Z" fill="#A76FBE"/>
<path d="M46.2169 42.0031L46.2121 43.7852C46.2121 43.7892 46.2105 43.7931 46.2077 43.796C46.2048 43.7988 46.201 43.8004 46.1969 43.8004H38.979C38.9749 43.8004 38.9711 43.7988 38.9682 43.796C38.9653 43.7931 38.9637 43.7892 38.9637 43.7852V42.0031C38.9637 42.0011 38.9641 41.9992 38.9649 41.9973C38.9657 41.9955 38.9668 41.9938 38.9682 41.9924C38.9696 41.991 38.9713 41.9898 38.9731 41.9891C38.975 41.9883 38.977 41.9879 38.979 41.9879H39.8598C39.8618 41.9879 39.8638 41.9875 39.8656 41.9868C39.8675 41.986 39.8691 41.9849 39.8705 41.9835C39.872 41.982 39.8731 41.9804 39.8738 41.9785C39.8746 41.9767 39.875 41.9747 39.875 41.9727V22.5163C39.875 22.5122 39.8734 22.5084 39.8705 22.5055C39.8677 22.5026 39.8638 22.501 39.8598 22.501H38.979C38.9749 22.501 38.9711 22.4994 38.9682 22.4966C38.9653 22.4937 38.9637 22.4899 38.9637 22.4858V20.7038C38.9637 20.6997 38.9653 20.6959 38.9682 20.693C38.9711 20.6901 38.9749 20.6885 38.979 20.6885H46.2029C46.207 20.6885 46.2108 20.6901 46.2137 20.693C46.2165 20.6959 46.2182 20.6997 46.2182 20.7038L46.2117 22.4862C46.2117 22.4903 46.2101 22.4941 46.2073 22.497C46.2044 22.4998 46.2006 22.5014 46.1965 22.5014L45.3277 22.5006C45.3237 22.5006 45.3198 22.5022 45.317 22.5051C45.3141 22.508 45.3125 22.5118 45.3125 22.5159V41.9727C45.3125 41.9747 45.3129 41.9767 45.3137 41.9785C45.3144 41.9804 45.3155 41.982 45.317 41.9835C45.3184 41.9849 45.3201 41.986 45.3219 41.9868C45.3237 41.9875 45.3257 41.9879 45.3277 41.9879H46.2017C46.2037 41.9879 46.2057 41.9883 46.2076 41.9891C46.2094 41.9898 46.2111 41.991 46.2125 41.9924C46.2139 41.9938 46.215 41.9955 46.2158 41.9973C46.2166 41.9992 46.2169 42.0011 46.2169 42.0031Z" fill="#A76FBE"/>
<path d="M32.1759 32.442C33.6856 32.7083 34.7178 33.5695 34.7371 35.1842C34.7491 36.1882 34.3755 37.0372 33.6163 37.7313C32.7327 38.5392 31.6572 38.8132 30.4632 38.8813C30.449 38.8821 30.4419 38.8895 30.4419 38.9037V40.5524C30.4419 40.5587 30.4394 40.5648 30.4349 40.5694C30.4304 40.5739 30.4243 40.5764 30.4179 40.5764H28.9403C28.9267 40.5764 28.9198 40.5697 28.9198 40.5564V38.9337C28.9198 38.907 28.9065 38.8937 28.8798 38.8937H27.568C27.5546 38.8937 27.548 38.9003 27.548 38.9137V40.5576C27.548 40.5704 27.5415 40.5768 27.5287 40.5768L26.0459 40.5764C26.0325 40.5764 26.0259 40.5696 26.0259 40.556V38.9337C26.0259 38.907 26.0125 38.8937 25.9858 38.8937H23.2825C23.2691 38.8937 23.2624 38.887 23.2624 38.8736C23.2608 38.2886 23.2619 37.7047 23.2656 37.122C23.2672 36.8681 23.4559 36.8136 23.673 36.7932C23.9147 36.7702 24.1569 36.7548 24.3996 36.7471C24.6848 36.7379 24.8178 36.5681 24.819 36.2797C24.827 33.797 24.8275 31.3141 24.8206 28.831C24.8198 28.5162 24.682 28.3948 24.3856 28.37C24.2083 28.355 24.0307 28.3454 23.8529 28.3411C23.5088 28.3331 23.264 28.3087 23.2628 27.8949C23.2615 27.3929 23.2614 26.8935 23.2624 26.3968C23.2624 26.3915 23.2645 26.3864 23.2683 26.3827C23.2721 26.3789 23.2772 26.3768 23.2825 26.3768H26.0058C26.0192 26.3768 26.0259 26.37 26.0259 26.3564V24.6941C26.0259 24.6674 26.0392 24.654 26.0659 24.654H27.5279C27.5332 24.654 27.5383 24.6561 27.5421 24.6599C27.5458 24.6636 27.548 24.6687 27.548 24.6741V26.3664C27.548 26.3797 27.5546 26.3864 27.568 26.3864H28.8998C28.9132 26.3864 28.9198 26.3797 28.9198 26.3664V24.6769C28.9198 24.674 28.9204 24.6711 28.9215 24.6684C28.9226 24.6658 28.9242 24.6633 28.9263 24.6613C28.9283 24.6592 28.9308 24.6576 28.9334 24.6565C28.9361 24.6554 28.939 24.6548 28.9419 24.6548L30.4019 24.6536C30.4289 24.6536 30.4423 24.6671 30.4423 24.6941L30.4411 26.3972C30.4411 26.4117 30.4482 26.4194 30.4624 26.4205C32.0133 26.5446 33.7453 27.2893 34.0597 29.0072C34.234 29.9597 34.087 30.7368 33.4257 31.4558C33.066 31.847 32.6483 32.1692 32.1727 32.4223C32.1551 32.4317 32.1562 32.4382 32.1759 32.442ZM27.6501 28.6079C27.6354 28.6079 27.6281 28.6152 27.6281 28.6299V31.3625C27.6281 31.3748 27.6342 31.381 27.6465 31.3813C27.9149 31.3853 28.1832 31.3858 28.4516 31.3829C29.1241 31.3753 29.8756 31.3785 30.3662 30.9551C30.7363 30.6359 30.8 30.0635 30.7135 29.6197C30.5549 28.8066 29.773 28.6143 29.0596 28.6119C28.619 28.61 28.1492 28.6087 27.6501 28.6079ZM29.5507 33.8479C28.9365 33.8343 28.3218 33.8315 27.7066 33.8395C27.6943 33.8398 27.6881 33.8459 27.6881 33.8579V36.6297C27.6881 36.6436 27.6951 36.6506 27.709 36.6506C28.2065 36.6511 28.7037 36.6506 29.2006 36.649C30.0194 36.6462 30.9218 36.4823 31.1285 35.531C31.374 34.4027 30.5369 33.8695 29.5507 33.8479Z" fill="#A76FBE"/>
<path d="M50.7504 49.2519L50.75 52.8489C50.75 52.8526 50.7485 52.8562 50.7459 52.8588C50.7433 52.8614 50.7397 52.8629 50.736 52.8629H7.26402C7.2603 52.8629 7.25674 52.8614 7.25411 52.8588C7.25148 52.8562 7.25 52.8526 7.25 52.8489V49.2519C7.25 49.2482 7.25148 49.2447 7.25411 49.242C7.25674 49.2394 7.2603 49.2379 7.26402 49.2379H9.04848C9.0522 49.2379 9.05577 49.2364 9.05839 49.2338C9.06102 49.2312 9.0625 49.2276 9.0625 49.2239V45.6269C9.0625 45.6232 9.06398 45.6197 9.06661 45.617C9.06924 45.6144 9.0728 45.6129 9.07652 45.6129H48.9235C48.9272 45.6129 48.9308 45.6144 48.9334 45.617C48.936 45.6197 48.9375 45.6232 48.9375 45.6269V49.2239C48.9375 49.2276 48.939 49.2312 48.9416 49.2338C48.9442 49.2364 48.9478 49.2379 48.9515 49.2379H50.7364C50.7401 49.2379 50.7437 49.2394 50.7463 49.242C50.7489 49.2447 50.7504 49.2482 50.7504 49.2519Z" fill="#A76FBE"/>
</svg>
