<svg width="54" height="54" viewBox="0 0 54 54" fill="none" xmlns="http://www.w3.org/2000/svg">
<path d="M44.1256 22.1074H9.82275V24.4372H44.1256V22.1074Z" fill="#A470B0"/>
<path d="M26.9486 50.2205C39.5313 50.2205 49.7315 39.9518 49.7315 27.2848C49.7315 14.6177 39.5313 4.34899 26.9486 4.34899C14.366 4.34899 4.16577 14.6177 4.16577 27.2848C4.16577 39.9518 14.366 50.2205 26.9486 50.2205Z" stroke="#A470B0" stroke-width="3" stroke-miterlimit="10"/>
<path d="M42.4285 22.9875L39.24 19.3634C38.8285 18.8974 38.8285 18.1726 39.24 17.7584C39.6514 17.2924 40.2685 17.2924 40.68 17.7584L43.8685 21.3826C44.28 21.8485 44.28 22.5734 43.8685 22.9875C43.4571 23.4535 42.7885 23.4535 42.4285 22.9875Z" fill="#A470B0"/>
<path d="M44.1771 30.0805H9.87427V32.4104H44.1771V30.0805Z" fill="#A470B0"/>
<path d="M11.5713 31.5302L14.7599 35.1544C15.1713 35.6203 15.1713 36.3452 14.7599 36.7593C14.3485 37.2253 13.7313 37.2253 13.3199 36.7593L10.1313 33.1352C9.7199 32.6692 9.7199 31.9444 10.1313 31.5302C10.5428 31.116 11.2113 31.116 11.5713 31.5302Z" fill="#A470B0"/>
</svg>
