<svg width="63" height="63" viewBox="0 0 63 63" fill="none" xmlns="http://www.w3.org/2000/svg">
<path d="M31.4401 58.5906C46.1198 58.5906 58.0201 46.6105 58.0201 31.8322C58.0201 17.054 46.1198 5.07382 31.4401 5.07382C16.7604 5.07382 4.86011 17.054 4.86011 31.8322C4.86011 46.6105 16.7604 58.5906 31.4401 58.5906Z" stroke="#A470B0" stroke-width="3" stroke-miterlimit="10"/>
<path d="M30.36 52.6711V48.6242C28.38 48.3825 26.76 47.8993 25.5 47.2953C24.24 46.6309 23.16 45.604 22.26 44.1543C21.36 42.7047 20.82 40.953 20.7 38.8389L24.7199 38.0537C25.0199 40.2282 25.5599 41.7986 26.3399 42.8255C27.4799 44.2752 28.8 45.0604 30.36 45.2416V32.4362C28.74 32.1342 27.0599 31.4698 25.3199 30.5033C24.0599 29.7785 23.04 28.8121 22.38 27.5436C21.72 26.2751 21.36 24.8255 21.36 23.255C21.36 20.4161 22.38 18.0604 24.36 16.3087C25.68 15.1007 27.72 14.3758 30.36 14.1342V12.2013H32.7V14.1342C35.04 14.3758 36.84 15.0403 38.2199 16.1879C39.9599 17.6376 41.04 19.6309 41.4 22.2282L37.26 22.8322C37.02 21.2617 36.54 20.0537 35.76 19.208C35.04 18.3624 33.96 17.8188 32.7 17.5168V29.1141C34.74 29.5973 36.0599 30.0201 36.7199 30.3221C37.9799 30.8658 39 31.5302 39.78 32.3154C40.56 33.1007 41.16 34.0671 41.58 35.1543C42 36.2416 42.2399 37.4496 42.2399 38.7181C42.2399 41.4966 41.34 43.8523 39.6 45.7248C37.86 47.5973 35.58 48.5637 32.76 48.7449V52.7919H30.36V52.6711ZM30.36 17.4564C28.8 17.698 27.6 18.302 26.7 19.3289C25.8 20.3557 25.38 21.5638 25.38 22.953C25.38 24.3423 25.7399 25.4899 26.5199 26.396C27.2999 27.302 28.5599 28.0872 30.4199 28.6309V17.4564H30.36ZM32.7 45.2416C34.26 45.0604 35.5199 44.396 36.5399 43.1879C37.5599 42.0403 38.0399 40.5906 38.0399 38.8993C38.0399 37.4497 37.68 36.2416 36.96 35.396C36.24 34.4899 34.7999 33.7047 32.6399 33.0403V45.2416H32.7Z" fill="#A470B0"/>
</svg>
