<svg width="54" height="53" viewBox="0 0 54 53" fill="none" xmlns="http://www.w3.org/2000/svg">
<path d="M52.2758 26.1594C52.2758 32.836 49.6024 39.2391 44.8438 43.9602C40.0852 48.6812 33.6312 51.3335 26.9016 51.3335C20.1719 51.3335 13.7179 48.6812 8.95928 43.9602C4.20069 39.2391 1.52734 32.836 1.52734 26.1594C1.52734 19.4829 4.20069 13.0797 8.95928 8.35869C13.7179 3.63764 20.1719 0.985378 26.9016 0.985378C33.6312 0.985378 40.0852 3.63764 44.8438 8.35869C49.6024 13.0797 52.2758 19.4829 52.2758 26.1594ZM49.2614 26.1556C49.2614 20.2727 46.9059 14.6307 42.7129 10.4709C38.52 6.31102 32.8332 3.97404 26.9035 3.97404C20.9738 3.97404 15.287 6.31102 11.094 10.4709C6.90112 14.6307 4.54556 20.2727 4.54556 26.1556C4.54556 32.0385 6.90112 37.6805 11.094 41.8403C15.287 46.0002 20.9738 48.3372 26.9035 48.3372C29.8396 48.3372 32.7469 47.7634 35.4595 46.6487C38.1721 45.534 40.6368 43.9001 42.7129 41.8403C44.7891 39.7806 46.4359 37.3353 47.5595 34.6441C48.6831 31.9529 49.2614 29.0685 49.2614 26.1556Z" fill="#A76FBE"/>
<path d="M25.1929 19.9601C25.1929 20.6556 25.0548 21.3443 24.7866 21.9869C24.5183 22.6295 24.1251 23.2133 23.6294 23.7051C23.1337 24.1969 22.5452 24.587 21.8975 24.8532C21.2498 25.1193 20.5557 25.2563 19.8546 25.2563C18.4388 25.2563 17.081 24.6983 16.0799 23.7051C15.0788 22.7119 14.5164 21.3648 14.5164 19.9601C14.5164 18.5555 15.0788 17.2084 16.0799 16.2152C17.081 15.222 18.4388 14.664 19.8546 14.664C21.2704 14.664 22.6283 15.222 23.6294 16.2152C24.6305 17.2084 25.1929 18.5555 25.1929 19.9601ZM22.6183 19.9563C22.6183 19.2291 22.3271 18.5317 21.8088 18.0175C21.2906 17.5033 20.5876 17.2145 19.8546 17.2145C19.1217 17.2145 18.4187 17.5033 17.9005 18.0175C17.3822 18.5317 17.091 19.2291 17.091 19.9563C17.091 20.3164 17.1625 20.6729 17.3014 21.0056C17.4403 21.3382 17.6438 21.6405 17.9005 21.8951C18.1571 22.1497 18.4617 22.3517 18.797 22.4894C19.1323 22.6272 19.4917 22.6982 19.8546 22.6982C20.2176 22.6982 20.5769 22.6272 20.9122 22.4894C21.2475 22.3517 21.5522 22.1497 21.8088 21.8951C22.0655 21.6405 22.269 21.3382 22.4079 21.0056C22.5468 20.6729 22.6183 20.3164 22.6183 19.9563Z" fill="#A76FBE"/>
<path d="M35.3863 15.9107L16.5753 34.5733C16.0797 35.065 16.0797 35.8621 16.5753 36.3538L16.6108 36.389C17.1063 36.8806 17.9098 36.8806 18.4054 36.389L37.2164 17.7264C37.7119 17.2347 37.7119 16.4376 37.2164 15.9459L37.1809 15.9107C36.6853 15.4191 35.8818 15.4191 35.3863 15.9107Z" fill="#A76FBE"/>
<path d="M39.2966 32.3625C39.2966 33.7677 38.734 35.1153 37.7325 36.1088C36.731 37.1024 35.3727 37.6606 33.9564 37.6606C32.5401 37.6606 31.1818 37.1024 30.1803 36.1088C29.1788 35.1153 28.6162 33.7677 28.6162 32.3625C28.6162 30.9574 29.1788 29.6098 30.1803 28.6162C31.1818 27.6226 32.5401 27.0644 33.9564 27.0644C35.3727 27.0644 36.731 27.6226 37.7325 28.6162C38.734 29.6098 39.2966 30.9574 39.2966 32.3625ZM36.7143 32.3587C36.7143 31.6325 36.4235 30.9361 35.906 30.4226C35.3884 29.9092 34.6864 29.6207 33.9545 29.6207C33.2226 29.6207 32.5206 29.9092 32.003 30.4226C31.4855 30.9361 31.1947 31.6325 31.1947 32.3587C31.1947 33.0849 31.4855 33.7813 32.003 34.2948C32.5206 34.8082 33.2226 35.0967 33.9545 35.0967C34.6864 35.0967 35.3884 34.8082 35.906 34.2948C36.4235 33.7813 36.7143 33.0849 36.7143 32.3587Z" fill="#A76FBE"/>
</svg>
