<svg width="17" height="22" viewBox="0 0 17 22" fill="none" xmlns="http://www.w3.org/2000/svg">
<path d="M0.334961 0.894669H8.65698C10.2962 0.894669 11.6201 1.1569 12.6289 1.65751C13.6376 2.15812 14.4782 2.89711 15.1297 3.82681C15.7811 4.78035 16.2645 5.87693 16.5587 7.11654C16.8529 8.37998 17 9.6911 17 11.0976C17 13.2907 16.7899 15.0071 16.3485 16.2229C15.9072 17.4386 15.2978 18.4399 14.5202 19.2742C13.7427 20.0847 12.9021 20.633 11.9984 20.9191C10.7795 21.3005 9.66571 21.4912 8.65698 21.4912H0.334961V0.894669ZM5.925 5.54319V16.7712H7.29099C8.46784 16.7712 9.28744 16.6281 9.7918 16.3182C10.2962 16.0083 10.6744 15.5077 10.9476 14.7687C11.2208 14.0297 11.3679 12.8378 11.3679 11.1929C11.3679 9.02363 11.0527 7.52179 10.4223 6.71128C9.7918 5.90077 8.76206 5.49551 7.31201 5.49551H5.925V5.54319Z" fill="white"/>
</svg>
