<svg width="76" height="86" viewBox="0 0 76 86" fill="none" xmlns="http://www.w3.org/2000/svg">
<path d="M10.5212 0.593852C11.1865 0.323921 12.1844 0 13.42 0C14.7505 0 15.7959 0.323921 16.4612 0.593852C17.5066 1.13371 19.5975 1.72757 20.4529 3.88702C20.9756 5.23667 22.3537 6.96422 22.3537 6.96422L23.7317 9.12368L24.6821 10.6353L25.2048 11.715L26.8205 15.818C26.8205 15.818 27.0581 16.3038 27.2957 16.4118C27.5333 16.5198 28.1511 16.7897 28.1511 16.7897L29.9568 18.6253L32.4754 21.3786L33.7584 22.7282L35.1365 23.9699L36.8947 25.1576L39.3182 26.2913L41.3615 27.2091L43.3574 28.1808L45.0206 28.7747L47.9193 28.8827H53.4791C53.4791 28.8827 58.2786 29.8544 60.3219 31.528C62.3653 33.2015 64.171 37.1965 64.171 37.1965L64.5512 42.0013C64.5512 42.0013 64.2185 53.1765 64.2185 53.2844C64.171 53.3924 66.2619 54.1482 66.2619 54.1482L68.7329 55.6059L71.0614 57.4414L72.582 58.899C72.582 58.899 73.4849 59.9787 73.5324 60.0867C73.5799 60.1947 74.5778 61.8683 74.5778 61.8683L74.9105 63.4339V64.5136L74.4353 65.2154C74.4353 65.2154 74.1977 65.9712 74.5303 66.0792C74.9105 66.2411 75.053 67.0509 75.053 67.0509L74.8629 68.4546L74.0551 69.7503C74.0551 69.7503 69.3507 74.501 69.7308 74.771C70.111 75.0409 67.2123 78.8199 67.2123 78.8199L66.4995 79.3058L62.888 79.7377L61.8425 79.3058L61.4149 78.496L60.9872 77.3623L61.0822 76.3366L61.4149 75.9047L62.0801 75.6348L62.9355 75.3108L63.4582 74.879L63.5532 74.663L63.6008 73.8532L63.8859 73.5293L63.9809 72.7735L63.9334 71.9097L63.6008 71.2619L62.983 70.3441L62.2227 69.4803L61.795 69.1024L58.6112 65.4853L56.3778 62.6241L55.4274 60.8965L54.7146 59.3309L53.9543 58.1432L52.6237 59.5468L53.384 60.5186L54.3344 61.7603L54.9047 62.732L56.0451 64.6755C56.0451 64.6755 56.948 66.4571 56.9955 66.5651C57.043 66.673 57.6608 68.3466 57.6608 68.3466L58.041 69.5343L58.4211 70.884L58.7062 72.5035L59.0864 74.0152L58.9914 75.6888L58.7062 77.0384L58.136 78.0641L57.6608 78.766L57.8509 79.5218L57.9934 80.9254L57.6608 81.6272L57.1381 82.1131L56.1877 82.599H55.2373C55.2373 82.599 48.5845 82.7609 47.254 83.4628C45.9234 84.1646 44.7354 84.0026 44.7354 84.0026H43.2148H42.9297L42.407 83.4628L41.5991 83.2468L40.7438 82.9769L40.031 82.491L39.7459 81.9511L39.5558 80.9254C39.5558 80.9254 39.7459 79.4138 40.8388 79.4138C41.9318 79.4138 41.9318 79.4138 41.9318 79.4138L43.0247 79.1979L44.5929 77.9562L45.5433 77.3083L45.6383 76.7145L43.8801 73.6373L42.6921 70.3981L41.9318 67.8607L41.4566 66.1872L41.0289 64.6216L40.6963 63.3259L40.3161 62.948L40.126 59.6548L40.3636 57.3334L40.3161 56.9015L38.4628 56.4156L37.2273 55.9838L37.1323 56.2537L37.7025 57.2254C37.7025 57.2254 38.9856 62.6781 38.3678 65.3774C37.7025 68.0767 37.4649 68.9944 37.4649 68.9944L37.0848 70.668L36.2294 73.0974L34.6137 76.8224L34.3286 77.3083L34.5187 77.9022L34.8038 78.3881L35.184 78.604L35.6592 78.8199L36.0393 79.3058L36.0869 83.1928L35.7067 83.8947L34.9939 84.2726L34.1385 84.5425L33.1882 84.8124H32.3328L31.3824 84.9744L30.8597 85.1363H26.868L25.3474 84.8124L24.6821 84.4885L24.0644 83.9486L23.8743 83.3008L23.7792 81.8972L24.0168 80.9254L24.2069 80.5475L23.8268 79.9537L23.3041 79.4138L23.2565 78.0101L23.4466 77.2004L23.6842 76.9304L23.8268 76.4445L23.0665 75.2569L21.2607 72.2876L20.2153 69.8582L19.2649 66.943L18.8847 65.4314L18.4095 63.1639L18.0294 61.4903L17.9818 59.7088L17.9343 58.899L17.5066 60.3027L16.8889 61.9222L16.1761 63.3799L15.7009 64.3516C15.7009 64.3516 15.4158 65.3234 15.3683 65.3774C15.3207 65.4853 14.8455 66.835 14.8455 66.835C14.8455 66.835 14.6079 67.6448 14.6079 67.8607C14.6079 68.0767 14.3228 69.2104 14.2753 69.3723C14.2278 69.5343 14.1327 70.668 14.1327 70.83C14.1327 70.9919 14.0852 72.6115 14.1327 72.7195C14.1803 72.8275 14.3228 73.5833 14.3228 73.5833L15.1307 74.2851L15.5583 74.771L15.7959 75.7967C15.7959 75.7967 15.7959 76.8764 15.7959 76.9844C15.7959 77.0924 15.6534 77.6862 15.6534 77.8482C15.6534 78.0102 15.3207 78.82 15.2257 78.9279C15.1307 79.0359 14.5604 79.6837 14.5604 79.6837L13.8951 79.9537L13.0398 80.0616L11.3291 80.2776L10.4262 80.4395L8.33534 80.7095L6.62463 80.3855L5.5792 79.9537L4.8664 79.3598L4.77136 78.9279V77.3083L4.91392 76.1746L4.77136 74.717L4.58129 73.3133L4.24865 72.4496L3.77345 71.3159L3.29825 70.1282L2.82306 68.5086L2.39538 66.673L2.01522 65.2154L1.68258 63.2179L1.44498 61.5443L1.11235 59.5468L0.969788 57.2254V55.2279V53.6084V52.0967L1.20739 50.3692L1.68258 48.8576C1.68258 48.8576 2.30034 45.5644 4.24865 43.405C6.19696 41.2455 6.00688 40.6516 6.00688 40.6516L6.86223 38.9241L7.28991 36.7646L7.62255 35.1991L7.67007 33.7414L8.14526 33.1476V32.7697L7.90767 32.3378L7.05231 32.0678L6.14944 31.7439L4.53377 30.8801L2.9181 29.5305L2.06274 28.3968L1.58754 27.425L1.25491 26.9391C1.01731 26.8312 0.779708 26.7232 0.54211 26.6692C0.256991 25.9134 -0.265725 24.2938 0.161952 22.3503C0.256992 21.8644 0.447071 21.4325 0.58963 21.0546C0.732189 20.8927 0.922268 20.6767 1.06483 20.5148L0.922269 19.543L1.06483 18.3553L1.44498 17.5995L2.06274 17.0057L2.72802 16.7357H3.25073L3.67841 16.3578L3.86849 15.818L3.82097 15.0082C3.82097 15.0082 3.58337 14.4143 3.48833 14.3603C3.39329 14.3064 2.87058 13.7665 2.87058 13.7665L2.6805 12.9567L2.9181 12.4708L3.34577 12.0389L3.91601 11.3371L4.20113 10.6893L4.43873 9.82551L4.58129 8.90773L4.8664 8.15193L5.53168 7.50409L6.24448 6.91024L7.19487 6.3164L7.90767 5.93849L8.57294 5.34464C8.57294 5.34464 8.66798 4.15694 8.7155 3.99498C8.76302 3.88701 9.00062 2.91526 9.00062 2.91526L9.1907 2.15945L9.6659 1.5656L9.9035 1.24168L10.5212 0.593852Z" fill="white"/>
</svg>
