<svg width="16" height="21" viewBox="0 0 16 21" fill="none" xmlns="http://www.w3.org/2000/svg">
<path d="M0.0210165 0H9.33075C11.3692 0 12.8823 0.548286 13.891 1.64486C14.8998 2.74144 15.4041 4.29094 15.4041 6.31722C15.4041 8.39118 14.8577 10.0122 13.7439 11.1803C12.6511 12.3484 10.9699 12.9443 8.70029 12.9443H5.63207V20.5727H0V0H0.0210165ZM5.65309 8.77259H7.01908C8.09085 8.77259 8.86842 8.55805 9.28872 8.12896C9.73004 7.69986 9.94019 7.15158 9.94019 6.4841C9.94019 5.84046 9.75105 5.29216 9.37278 4.83923C8.99451 4.3863 8.27999 4.17175 7.22923 4.17175H5.63207V8.77259H5.65309Z" fill="white"/>
</svg>
