<svg width="434" height="655" viewBox="0 0 434 655" fill="none" xmlns="http://www.w3.org/2000/svg">
<g clip-path="url(#clip0_1391_17)">
<path d="M-740 287.93V284.08C-610.03 283.87 -524.14 284.42 -416.75 283.96C-412.04 283.94 -410.4 283.39 -406.79 280.09C-402.197 275.89 -398.207 272.003 -394.82 268.43C-357.92 229.56 -311.35 183.38 -285.98 158.52C-285.04 157.6 -282.77 157 -281.23 157C-196.257 157 -111.27 157 -26.27 157C-26.1206 157 -25.973 156.971 -25.8358 156.914C-25.6985 156.857 -25.5742 156.775 -25.47 156.67L46.01 86.6401C46.4335 86.2296 47.0002 86 47.59 86.0001C111.743 86.0001 176.047 86.0001 240.5 86.0001C244.58 86.0001 245.45 78.1001 254.1 79.6701C262.27 81.1501 261.81 92.4501 256.19 96.4001C250.22 100.6 245.64 94.8401 241.72 91.3401C241.46 91.1134 241.157 91.0001 240.81 91.0001C176.957 91.0001 113.103 91.0001 49.25 91.0001C48.5567 91.0001 47.72 91.4967 46.74 92.4901C23.8667 115.683 0.956676 138.697 -21.99 161.53C-22.2914 161.831 -22.6978 162 -23.12 162C-108.52 162 -193.897 162 -279.25 162C-282.09 162 -287.24 167.25 -289.31 169.19C-329.59 207.07 -365.18 244.98 -406.83 286.16C-408.98 288.28 -409.84 288.93 -413.07 288.95C-455.85 289.21 -498.56 288.07 -541.31 288.05C-607.543 288.017 -673.773 287.977 -740 287.93Z" fill="#A76FBE"/>
<path d="M401.84 101.22C401.631 101.083 401.384 101.01 401.13 101.01C383.277 100.997 365.447 100.997 347.64 101.01C343.15 101.01 340.99 100.61 337.44 104.02C331.46 109.78 325.713 115.957 320.2 122.55C319.878 122.935 319.437 123.201 318.947 123.304C318.457 123.408 317.947 123.343 317.5 123.12L315.26 122.01C314.447 121.603 314.36 121.077 315 120.43C322.34 113.023 329.567 105.773 336.68 98.6799C338.413 96.9466 340.52 96.1232 343 96.2099C359.747 96.7699 376.497 97.2299 393.25 97.5899C398.583 97.7099 403.76 95.8399 408.78 91.9799C409.753 91.2399 411.027 90.9066 412.6 90.9799C421.36 91.3899 422.65 107.93 413.1 107.31C409.53 107.08 405.08 103.41 401.84 101.22Z" fill="#A76FBE"/>
<path d="M32.8201 157.59C46.1134 144.45 59.3601 131.257 72.5601 118.01C73.9601 116.61 75.7501 116.03 77.5601 116.02C96.7934 115.993 116.153 115.99 135.64 116.01C138.527 116.01 138.593 116.44 135.84 117.3C132.21 118.43 126.83 121.89 122.73 121.92C107.903 122.033 93.0868 122.05 78.2801 121.97C75.1901 121.95 74.2401 123.24 72.2401 125.24C60.2467 137.24 48.2234 149.243 36.1701 161.25C36.0505 161.369 35.9673 161.52 35.9301 161.684C35.8929 161.849 35.9033 162.021 35.9601 162.18C38.5534 169.153 36.3801 173.487 29.4401 175.18C28.0401 175.52 26.5167 175.41 24.8701 174.85C14.2401 171.23 18.7401 153.01 31.9001 157.79C32.2468 157.923 32.5534 157.857 32.8201 157.59Z" fill="#A76FBE"/>
<path d="M1180 246.81V251.61C1178.93 252.963 1177.61 253.25 1176.02 252.47C1175.24 252.083 1175.23 252.003 1175.99 252.23C1176.32 252.323 1176.61 252.267 1176.84 252.06C1177.17 251.753 1177.11 251.58 1176.66 251.54C1175.23 251.41 1173.71 251 1172.31 251C1058.82 251 945.333 251 831.84 251C825.25 251 822.77 248.3 818.26 243.74C792.267 217.493 753.41 178.653 701.69 127.22C701.01 126.55 699.94 126 699 126C585.02 126 471.043 126 357.07 126C356.723 126 356.427 126.123 356.18 126.37L345.22 137.43C344.973 137.683 344.67 137.783 344.31 137.73C343.11 137.557 342.137 136.957 341.39 135.93C341.177 135.643 341.193 135.37 341.44 135.11C344.06 132.42 352.93 122 356.2 122C471.22 122 586.237 122 701.25 122C701.91 122 702.86 122.36 703.44 122.93C744.48 163.797 785.434 204.753 826.3 245.8C826.94 246.44 828.01 247 828.91 247C942.023 247 1055.14 246.993 1168.25 246.98C1170.76 246.98 1173.27 246.837 1175.76 246.55C1176.88 246.423 1176.93 246.127 1175.9 245.66C1175.46 245.46 1174.99 245.333 1174.5 245.28C1172.81 245.1 1172.81 244.923 1174.5 244.75L1179.24 244.25C1179.61 244.217 1179.78 244.383 1179.75 244.75C1179.7 245.47 1179.78 246.157 1180 246.81Z" fill="#A76FBE"/>
<path d="M1180 306.75V312.81C1179.75 313.177 1179.68 313.623 1179.77 314.15C1179.84 314.583 1179.66 314.793 1179.22 314.78C1177.88 314.72 1176.55 314.583 1175.23 314.37C1174.04 314.177 1174.04 313.967 1175.22 313.74L1177.77 313.26C1178.38 313.147 1178.38 312.997 1177.79 312.81C1176.09 312.277 1174.64 312.01 1173.44 312.01C1043.75 311.997 914.053 311.993 784.36 312C780.99 312 779.11 310.84 776.9 308.6C733.947 265.293 690.853 222.12 647.62 179.08C646.77 178.23 645.53 177.96 644.5 177.96C569.66 178.31 494.83 177.85 419.97 178.04C419.658 178.04 419.35 178.116 419.073 178.26C418.797 178.405 418.559 178.614 418.38 178.87C411.26 189.11 397.82 177.01 406.12 169.6C410.513 165.68 414.543 166.157 418.21 171.03C418.461 171.365 418.788 171.636 419.163 171.822C419.538 172.007 419.951 172.103 420.37 172.1C474.77 171.74 529.127 171.983 583.44 172.83C599.833 173.09 620.853 173.127 646.5 172.94C647.43 172.93 648.81 173.25 649.63 174.08C694.023 218.613 738.493 263.1 783.04 307.54C783.177 307.677 783.343 307.781 783.527 307.846C783.71 307.91 783.906 307.932 784.1 307.91C789.22 307.383 794.457 307.12 799.81 307.12C923.377 307.027 1046.94 306.99 1170.5 307.01C1171.63 307.01 1173.14 306.893 1175.02 306.66C1175.35 306.62 1175.62 306.48 1175.85 306.24C1177.52 304.447 1178.9 304.617 1180 306.75Z" fill="#A76FBE"/>
<path d="M-740 314.87V312.21C-676.1 311.99 -612.203 311.917 -548.31 311.99C-541.937 311.997 -535.27 311.94 -528.31 311.82C-483.403 311.053 -436.55 310.807 -387.75 311.08C-386.1 311.09 -385.72 310.1 -384.76 309.14C-345.953 270.313 -307.133 231.5 -268.3 192.7C-265.61 190.01 -263.94 189 -259.88 189C-176.587 189 -93.2933 189 -10 189C-6.99 189 -5.55999 189.19 -3.29999 191.37C5.20668 199.557 13.5634 207.88 21.77 216.34C22.0634 216.64 22.1033 216.973 21.89 217.34L20.41 219.84C20.15 220.287 19.8366 220.327 19.47 219.96C16.02 216.52 -6.21999 193 -8.73999 193C-93.0667 193 -177.42 193 -261.8 193C-262.159 193 -262.5 193.141 -262.75 193.39L-383.71 314.27C-384.19 314.75 -384.841 315.02 -385.52 315.02L-740 314.87Z" fill="#A76FBE"/>
<path d="M474.14 207.48C477.16 204.35 479.98 200.93 484.66 201.81C494.18 203.59 493.68 213.33 487.73 218.74C479.54 226.17 477.44 213.9 471.5 213.93C453.293 213.99 435.083 214.007 416.87 213.98C416.523 213.98 416.257 213.833 416.07 213.54L413.64 209.63C413.367 209.19 413.487 208.967 414 208.96L473.25 207.86C473.597 207.853 473.893 207.727 474.14 207.48Z" fill="#A76FBE"/>
<path d="M-16.4798 217.9L8.53016 243.09C8.79016 243.343 8.91349 243.653 8.90015 244.02C8.84682 245.447 8.37344 246.747 7.48011 247.92C7.24011 248.24 6.9768 248.26 6.69013 247.98C-1.28987 240.193 -9.19985 232.343 -17.0398 224.43C-19.7198 221.72 -21.7299 221.43 -25.2999 222.24C-25.6265 222.313 -25.9465 222.293 -26.2599 222.18C-33.5899 219.43 -34.3799 211.25 -27.1999 207.84C-20.1999 204.52 -14.3799 209.58 -16.6799 217.08C-16.7222 217.223 -16.7259 217.374 -16.6908 217.519C-16.6556 217.663 -16.5828 217.794 -16.4798 217.9Z" fill="#A76FBE"/>
<path d="M-242.24 236.94C-241.66 237.02 -240.997 237.057 -240.25 237.05C-205.743 236.777 -169.303 237.007 -130.93 237.74C-98.4101 238.36 -65.8101 238.04 -33.3001 237.98C-32.8513 237.979 -32.4203 238.155 -32.1001 238.47C-21.9334 248.437 -11.87 258.47 -1.91003 268.57C0.399966 270.92 0.849956 272.99 -1.17004 275.6C-1.36338 275.853 -1.57004 275.867 -1.79004 275.64C-12.46 264.86 -23.1001 253.37 -34.4401 243.34C-34.7001 243.113 -35.0034 243 -35.3501 243L-240.75 243.02C-241.09 243.027 -241.397 243.137 -241.67 243.35C-244.77 245.81 -246.04 249.57 -250.97 249.1C-261.29 248.11 -264.02 233.98 -253.41 231.85C-249.083 230.983 -245.617 232.517 -243.01 236.45C-242.83 236.73 -242.573 236.893 -242.24 236.94Z" fill="#A76FBE"/>
<path d="M602.78 242.25C602.721 242.172 602.646 242.109 602.561 242.066C602.476 242.023 602.383 242 602.29 242H430.59C430.25 242 430.017 241.847 429.89 241.54L428.25 237.74C428.043 237.253 428.207 237.01 428.74 237.01C485.8 236.99 542.854 236.99 599.9 237.01C603.14 237.01 604.49 235.64 606.06 233.14C606.24 232.847 606.497 232.65 606.83 232.55C616.63 229.55 622.58 241.62 614.35 246.18C609.99 248.6 605.47 245.81 602.78 242.25Z" fill="#A76FBE"/>
<path d="M1180 330.81V336.06L1179.69 337.42C1179.62 337.733 1179.42 337.87 1179.11 337.83L1174.79 337.32C1173.91 337.213 1173.89 337.03 1174.74 336.77C1175.77 336.45 1176.84 336.37 1177.94 336.53C1178.27 336.577 1178.45 336.433 1178.48 336.1C1178.55 335.3 1172.5 335.01 1171.91 335.01C1119.6 334.983 1067.3 334.987 1014.99 335.02C990.32 335.03 963.88 335.9 943.81 335.93C847.877 336.07 751.94 336.04 656 335.84C653.387 335.833 650.77 335.873 648.15 335.96C647.79 335.973 647.48 336.107 647.22 336.36L571.95 411.62C571.829 411.741 571.686 411.836 571.528 411.902C571.37 411.967 571.201 412 571.03 412H431.54C431.087 412 430.943 411.79 431.11 411.37L432.68 407.46C432.8 407.153 433.023 407 433.35 407H567.76C568.001 407 568.239 406.952 568.46 406.86C568.682 406.767 568.882 406.631 569.05 406.46C591.72 383.21 613.82 359.75 638.12 338.13C642.37 334.36 646.76 330.17 652.25 330.19C674.44 330.28 696.63 330.98 718.8 330.98C869.16 331.007 1019.52 331.01 1169.88 330.99C1172.66 330.99 1175.45 330.67 1178.25 330.46C1178.43 330.447 1178.57 330.363 1178.66 330.21C1178.96 329.72 1173.6 329.19 1173.47 329.16C1172.64 329.013 1172.65 328.9 1173.49 328.82L1179.26 328.27C1179.65 328.23 1179.82 328.403 1179.77 328.79C1179.67 329.583 1179.75 330.257 1180 330.81Z" fill="#A76FBE"/>
<path d="M0.510071 402.09C-14.1166 387.097 -28.94 372.3 -43.96 357.7C-45.0333 356.653 -47.24 354.84 -50.58 352.26C-50.8466 352.053 -51.1466 351.953 -51.4799 351.96C-86.9933 352.107 -122.5 352.023 -158 351.71C-162.513 351.67 -167.013 351.423 -171.5 350.97C-171.853 350.937 -172.17 351.03 -172.45 351.25C-176.41 354.36 -181.33 362.58 -186.6 355.68C-189.76 351.56 -189.71 345.17 -184.77 342.52C-179.78 339.85 -177.02 343.52 -173.69 346.65C-173.443 346.877 -173.15 346.99 -172.81 346.99C-133.79 346.997 -94.7699 347.01 -55.7499 347.03C-53.5099 347.03 -51.2733 347.14 -49.0399 347.36C-48.7066 347.393 -48.4132 347.513 -48.1599 347.72C-46.4666 349.1 -44.8566 350.55 -43.33 352.07C-27.67 367.663 -12.0633 383.303 3.49005 398.99C6.21005 401.73 7.92005 409.24 9.61005 413.03C9.77005 413.383 9.67006 413.637 9.31006 413.79C5.42006 415.4 1.17008 412.22 0.0800781 408.57C-0.499922 406.65 0.310071 404.98 0.760071 403.01C0.846737 402.657 0.763404 402.35 0.510071 402.09Z" fill="#A76FBE"/>
<path d="M16.7101 446.83C22.9901 444.6 28.6701 447.47 29.3501 454.2C30.2901 463.57 21.7601 467.12 14.6601 462.07C10.4701 459.09 12.1401 455.69 12.1501 451.33C12.1501 450.97 12.0234 450.667 11.7701 450.42L-59.9299 378.48C-60.069 378.338 -60.2362 378.225 -60.4217 378.147C-60.6071 378.07 -60.8071 378.03 -61.0099 378.03C-110.51 378.02 -160.04 378.53 -209.5 377.24C-209.84 377.227 -210.15 377.323 -210.43 377.53C-213.1 379.54 -215.72 382.86 -218.49 383.75C-227.83 386.75 -235.09 367.87 -222.48 365.68C-218.26 364.94 -213.9 366.38 -212.06 370.6C-211.879 371.016 -211.58 371.369 -211.2 371.618C-210.82 371.867 -210.375 371.999 -209.92 372C-160.92 372 -111.947 372 -62.9999 372C-60.2599 372 -58.2699 372.26 -56.2099 374.33C-32.2299 398.41 -8.07657 422.543 16.2501 446.73C16.3101 446.789 16.3854 446.83 16.4669 446.848C16.5485 446.866 16.6329 446.859 16.7101 446.83Z" fill="#A76FBE"/>
<path d="M546.81 436H420.73C420.063 436 419.88 435.7 420.18 435.1L421.95 431.54C422.13 431.18 422.423 431 422.83 431H546.27C546.49 431 546.706 430.948 546.901 430.849C547.095 430.75 547.263 430.606 547.39 430.43C559.64 413.46 573.15 435.91 559.62 441.28C554.713 443.227 550.713 441.62 547.62 436.46C547.44 436.153 547.17 436 546.81 436Z" fill="#A76FBE"/>
<path d="M1180 448.81V452.81C1179.78 453.25 1179.7 453.74 1179.75 454.28C1179.78 454.66 1179.61 454.827 1179.23 454.78L1175.26 454.3C1174.03 454.153 1174.03 453.983 1175.25 453.79L1177.81 453.38C1178.66 453.247 1178.66 453.077 1177.83 452.87C1175.49 452.297 1173.13 452.01 1170.75 452.01C1099.83 451.96 1028.85 451.42 957.94 452.76C951.127 452.893 944.463 452.96 937.95 452.96C863.103 453.013 788.257 453.023 713.41 452.99C705.61 452.98 700.89 451.54 694.93 457.43C664.517 487.517 634.42 517.92 604.64 548.64C604.333 548.953 604.03 549.277 603.73 549.61C603.503 549.87 603.22 550 602.88 550C492.84 550 382.797 550.007 272.75 550.02C271.643 550.02 270.553 549.897 269.48 549.65C269.12 549.563 269.12 549.483 269.48 549.41C275.5 548.17 281.46 546 287.59 546C391.197 546 494.8 546 598.4 546C599.03 546 599.68 545.73 600.38 545.74C600.707 545.753 600.987 545.643 601.22 545.41C631.273 515.15 661.387 484.95 691.56 454.81C699.19 447.2 705.78 448.99 715.52 448.99C867.513 449.003 1019.51 449.007 1171.5 449C1172.63 449 1173.9 448.737 1175.29 448.21C1175.67 448.063 1175.72 447.843 1175.43 447.55L1175.18 447.31C1174.77 446.903 1174.86 446.667 1175.43 446.6L1179.21 446.19C1179.61 446.15 1179.79 446.327 1179.75 446.72C1179.69 447.46 1179.77 448.157 1180 448.81Z" fill="#A76FBE"/>
<path d="M479.73 455.54C484.43 446.91 495.48 448.75 497.18 458.06C498.74 466.61 487.94 470.51 482.05 465.66C480.63 464.49 479.26 461.03 476.94 461.03C452.873 461.063 428.837 461.04 404.83 460.96C404.751 460.961 404.673 460.94 404.606 460.899C404.538 460.858 404.483 460.798 404.447 460.727C404.411 460.655 404.395 460.575 404.401 460.494C404.406 460.414 404.434 460.336 404.48 460.27L406.69 457.11C406.931 456.767 407.25 456.488 407.621 456.294C407.991 456.101 408.403 456 408.82 456L478.94 456.01C479.293 456.01 479.557 455.853 479.73 455.54Z" fill="#A76FBE"/>
<path d="M-197.33 466.14L-157.01 506.47C-156.842 506.638 -156.642 506.771 -156.423 506.862C-156.203 506.953 -155.968 507 -155.73 507H79.7101C80.0501 507 80.3634 507.1 80.6501 507.3L84.5601 510.03C84.6555 510.094 84.7276 510.187 84.7654 510.296C84.8032 510.404 84.8048 510.522 84.7698 510.631C84.7348 510.741 84.6652 510.836 84.5714 510.902C84.4777 510.969 84.3649 511.003 84.2501 511H-157.77C-158.117 511 -158.413 510.88 -158.66 510.64C-172.153 497.44 -185.477 484.107 -198.63 470.64C-202.62 466.56 -208.36 472.11 -211.71 465.25C-218.56 451.2 -193.79 449.81 -197.77 464.49C-197.849 464.778 -197.851 465.083 -197.773 465.373C-197.696 465.663 -197.543 465.928 -197.33 466.14Z" fill="#A76FBE"/>
<path d="M-740 464.19V460.19C-646.44 459.91 -552.88 459.887 -459.32 460.12C-392.22 460.28 -313.63 459.62 -260.75 460.03C-259.657 460.043 -258.52 460.647 -257.34 461.84C-232.827 486.66 -208.227 511.393 -183.54 536.04C-183.1 536.47 -181.79 536.96 -181 536.96C-55.42 537.093 44.6633 537.063 119.25 536.87C122.64 536.86 128.44 534.52 131.33 537.1C131.537 537.287 131.577 537.5 131.45 537.74C129.85 540.82 127.373 542.24 124.02 542C119.19 541.65 114.55 541.97 110.77 541.97C12.5167 542.01 -85.5733 542.017 -183.5 541.99C-184.141 541.99 -184.755 541.739 -185.21 541.29C-209.983 516.677 -234.66 491.993 -259.24 467.24C-260.83 465.64 -260.87 465.11 -263.39 465.1C-309.997 464.807 -356.6 464.917 -403.2 465.43C-409.91 465.5 -418.25 465.32 -425.65 465.1C-448.617 464.393 -464.587 464.037 -473.56 464.03C-558.82 463.99 -644.077 463.983 -729.33 464.01C-732.18 464.01 -736.42 464.54 -740 464.19Z" fill="#A76FBE"/>
<path d="M589.65 482.63C592.677 477.797 596.43 476.56 600.91 478.92C610.54 484.01 600.55 498.95 592.77 491.94C590.19 489.62 589.41 487.99 585.66 488C517.7 488.007 449.713 488.007 381.7 488C381.64 488.001 381.582 487.984 381.532 487.952C381.481 487.92 381.442 487.874 381.419 487.819C381.395 487.764 381.388 487.704 381.399 487.645C381.41 487.586 381.438 487.532 381.48 487.49L385.55 483.35C385.783 483.117 386.063 483 386.39 483H588.99C589.276 483 589.497 482.877 589.65 482.63Z" fill="#A76FBE"/>
<path d="M583.52 508.81C588.39 505.57 589.73 500.31 597.18 504.31C606.5 509.31 599.79 523.92 590.37 520.95C587.66 520.09 585.91 517.18 583.57 515.3C583.303 515.087 583 514.98 582.66 514.98C530.91 515.03 478.99 515.73 427.26 514.75C402.173 514.27 377.067 514.007 351.94 513.96C350.753 513.96 350.643 513.613 351.61 512.92L356.62 509.32C356.893 509.12 357.2 509.02 357.54 509.02L582.93 508.99C583.138 508.99 583.344 508.927 583.52 508.81Z" fill="#A76FBE"/>
<path d="M144.92 564.43C150.34 559.043 155.88 553.583 161.54 548.05C162.83 546.78 164.54 548.19 165.95 548.52C167.097 548.793 167.253 549.347 166.42 550.18L147.45 569.19C146.944 569.695 146.257 569.979 145.54 569.98C104.42 570.07 62.9699 570.64 21.7499 569.3C17.1599 569.15 13.89 572.76 10.59 575.36C10.3233 575.573 10.0233 575.683 9.68995 575.69C-5.81005 576.12 2.39995 555.62 10.26 559.46C12.32 560.47 14.4599 563.08 16.4199 564.7C16.6599 564.9 16.94 565 17.26 565H143.53C144.07 565 144.533 564.81 144.92 564.43Z" fill="#A76FBE"/>
</g>
<defs>
<clipPath id="clip0_1391_17">
<rect width="434" height="655" fill="white"/>
</clipPath>
</defs>
</svg>
