<svg width="1920" height="655" viewBox="0 0 1920 655" fill="none" xmlns="http://www.w3.org/2000/svg">
<g clip-path="url(#clip0_904_27883)">
<path d="M0 287.93V284.08C129.97 283.87 215.86 284.42 323.25 283.96C327.96 283.94 329.6 283.39 333.21 280.09C337.803 275.89 341.793 272.003 345.18 268.43C382.08 229.56 428.65 183.38 454.02 158.52C454.96 157.6 457.23 157 458.77 157C543.743 157 628.73 157 713.73 157C713.879 157 714.027 156.971 714.164 156.914C714.302 156.857 714.426 156.775 714.53 156.67L786.01 86.6401C786.434 86.2296 787 86 787.59 86.0001C851.743 86.0001 916.047 86.0001 980.5 86.0001C984.58 86.0001 985.45 78.1001 994.1 79.6701C1002.27 81.1501 1001.81 92.4501 996.19 96.4001C990.22 100.6 985.64 94.8401 981.72 91.3401C981.46 91.1134 981.157 91.0001 980.81 91.0001C916.957 91.0001 853.103 91.0001 789.25 91.0001C788.557 91.0001 787.72 91.4967 786.74 92.4901C763.867 115.683 740.957 138.697 718.01 161.53C717.709 161.831 717.302 162 716.88 162C631.48 162 546.103 162 460.75 162C457.91 162 452.76 167.25 450.69 169.19C410.41 207.07 374.82 244.98 333.17 286.16C331.02 288.28 330.16 288.93 326.93 288.95C284.15 289.21 241.44 288.07 198.69 288.05C132.457 288.017 66.2267 287.977 0 287.93Z" fill="#A76FBE"/>
<path d="M1249.48 102.37C1247.08 106.05 1243.59 110.07 1238.71 108.78C1228.03 105.96 1229.83 87.4901 1242.45 90.6001C1245.66 91.3901 1247.91 94.2801 1250.29 96.6401C1250.53 96.8801 1250.82 97.0001 1251.17 97.0001C1319.1 96.9934 1387.02 96.9968 1454.93 97.0101C1456.51 97.0101 1458.44 97.9601 1459.7 99.2001C1500.72 139.59 1541.21 180.59 1581.83 221.39C1582.07 221.623 1582.35 221.757 1582.68 221.79C1591.12 222.55 1599.82 221.92 1608.36 222.02C1608.67 222.023 1608.98 221.93 1609.23 221.755C1609.49 221.58 1609.69 221.331 1609.8 221.04C1612.97 212.77 1624.68 213.46 1625.99 222.27C1626.97 228.843 1624.14 232.247 1617.49 232.48C1613.92 232.607 1611.61 231.12 1610.57 228.02C1610.47 227.721 1610.28 227.46 1610.02 227.277C1609.76 227.094 1609.46 226.997 1609.14 227C1600.43 227.007 1591.75 227.003 1583.09 226.99C1581.61 226.98 1579.81 226.28 1578.78 225.25C1538.13 184.87 1498.2 143.54 1457.02 103.73C1455.73 102.48 1454.34 102 1452.43 102C1385.02 102 1317.6 102 1250.16 102C1249.87 102 1249.64 102.123 1249.48 102.37Z" fill="#A76FBE"/>
<path d="M1141.84 101.22C1141.63 101.083 1141.38 101.01 1141.13 101.01C1123.28 100.997 1105.45 100.997 1087.64 101.01C1083.15 101.01 1080.99 100.61 1077.44 104.02C1071.46 109.78 1065.71 115.957 1060.2 122.55C1059.88 122.935 1059.44 123.201 1058.95 123.304C1058.46 123.408 1057.95 123.343 1057.5 123.12L1055.26 122.01C1054.45 121.603 1054.36 121.077 1055 120.43C1062.34 113.023 1069.57 105.773 1076.68 98.6799C1078.41 96.9466 1080.52 96.1232 1083 96.2099C1099.75 96.7699 1116.5 97.2299 1133.25 97.5899C1138.58 97.7099 1143.76 95.8399 1148.78 91.9799C1149.75 91.2399 1151.03 90.9066 1152.6 90.9799C1161.36 91.3899 1162.65 107.93 1153.1 107.31C1149.53 107.08 1145.08 103.41 1141.84 101.22Z" fill="#A76FBE"/>
<path d="M489.15 102.49C489.035 102.338 488.886 102.215 488.714 102.13C488.543 102.045 488.353 102 488.16 102H426.49C425.824 102 425.184 102.266 424.71 102.74L404.19 123.35C403.919 123.622 403.728 123.963 403.638 124.337C403.548 124.711 403.562 125.103 403.68 125.47C406.32 133.62 397.21 139.11 390.85 134.44C386.18 131.01 388.01 123.48 392.97 121.47C395.97 120.25 399.53 122.29 402.21 119.49C408.463 112.97 414.8 106.547 421.22 100.22C424.01 97.47 425.7 96.91 429.86 96.98C456.433 97.3867 473.957 97.75 482.43 98.07C484.71 98.1634 486.53 98.03 487.89 97.67C488.23 97.5834 488.497 97.3934 488.69 97.1C491.89 92.29 499.04 89.72 503.31 94.64C504.923 96.4934 505.277 98.6967 504.37 101.25C502.203 107.37 498.147 109.003 492.2 106.15C491.933 106.017 491.71 105.833 491.53 105.6L489.15 102.49Z" fill="#A76FBE"/>
<path d="M1576.13 174.74C1582.34 172.49 1586.82 175.82 1586.43 182.18C1585.73 193.64 1569.61 191.76 1571.54 178.08C1571.59 177.733 1571.5 177.43 1571.27 177.17C1569.64 175.303 1567.96 173.5 1566.24 171.76C1549.71 155.027 1533.07 138.393 1516.34 121.86C1514.43 119.97 1513.03 119.64 1510.51 120.06C1504.61 121.03 1501.23 115.48 1502.5 110.27C1504.41 102.44 1516.27 102.95 1517.2 111.45C1517.41 113.32 1516.15 115.61 1517.91 117.36C1536.11 135.527 1554.3 153.697 1572.48 171.87C1573.08 172.47 1574.03 173.93 1575.12 174.63C1575.44 174.83 1575.78 174.867 1576.13 174.74Z" fill="#A76FBE"/>
<path d="M772.82 157.59C786.113 144.45 799.36 131.257 812.56 118.01C813.96 116.61 815.75 116.03 817.56 116.02C836.793 115.993 856.153 115.99 875.64 116.01C878.527 116.01 878.593 116.44 875.84 117.3C872.21 118.43 866.83 121.89 862.73 121.92C847.903 122.033 833.087 122.05 818.28 121.97C815.19 121.95 814.24 123.24 812.24 125.24C800.247 137.24 788.223 149.243 776.17 161.25C776.05 161.369 775.967 161.52 775.93 161.684C775.893 161.849 775.903 162.021 775.96 162.18C778.553 169.153 776.38 173.487 769.44 175.18C768.04 175.52 766.517 175.41 764.87 174.85C754.24 171.23 758.74 153.01 771.9 157.79C772.247 157.923 772.553 157.857 772.82 157.59Z" fill="#A76FBE"/>
<path d="M221.32 219.27C218.17 222.54 214.54 227.32 209.16 225.74C193.47 221.14 208.29 197.6 220.62 213.33C220.786 213.539 220.996 213.708 221.235 213.824C221.474 213.94 221.735 214 222 214H344.7C345.142 214 345.566 213.828 345.88 213.52L433.21 127.57C433.65 127.13 434.183 126.913 434.81 126.92C516 127.73 597.25 126.6 678.44 127.02C679.18 127.027 680.307 126.62 681.82 125.8C682.12 125.64 682.31 125.393 682.39 125.06C685.39 111.92 705.34 125.07 696.71 135.03C693.45 138.79 688.44 139.43 684.43 136.36C682.91 135.2 681.86 132.1 679.44 132.08C601.93 131.36 524.55 129.55 447.25 131.77C444.03 131.86 437.13 131.94 435.11 133.86C406.63 160.85 379.08 188.61 351.24 216.24C350.4 217.073 349.53 217.887 348.63 218.68C348.383 218.893 348.097 219 347.77 219H221.96C221.84 219 221.721 219.024 221.611 219.071C221.501 219.117 221.402 219.185 221.32 219.27Z" fill="#A76FBE"/>
<path d="M1920 246.81V251.61C1918.93 252.963 1917.61 253.25 1916.02 252.47C1915.24 252.083 1915.23 252.003 1915.99 252.23C1916.32 252.323 1916.61 252.267 1916.84 252.06C1917.17 251.753 1917.11 251.58 1916.66 251.54C1915.23 251.41 1913.71 251 1912.31 251C1798.82 251 1685.33 251 1571.84 251C1565.25 251 1562.77 248.3 1558.26 243.74C1532.27 217.493 1493.41 178.653 1441.69 127.22C1441.01 126.55 1439.94 126 1439 126C1325.02 126 1211.04 126 1097.07 126C1096.72 126 1096.43 126.123 1096.18 126.37L1085.22 137.43C1084.97 137.683 1084.67 137.783 1084.31 137.73C1083.11 137.557 1082.14 136.957 1081.39 135.93C1081.18 135.643 1081.19 135.37 1081.44 135.11C1084.06 132.42 1092.93 122 1096.2 122C1211.22 122 1326.24 122 1441.25 122C1441.91 122 1442.86 122.36 1443.44 122.93C1484.48 163.797 1525.43 204.753 1566.3 245.8C1566.94 246.44 1568.01 247 1568.91 247C1682.02 247 1795.14 246.993 1908.25 246.98C1910.76 246.98 1913.27 246.837 1915.76 246.55C1916.88 246.423 1916.93 246.127 1915.9 245.66C1915.46 245.46 1914.99 245.333 1914.5 245.28C1912.81 245.1 1912.81 244.923 1914.5 244.75L1919.24 244.25C1919.61 244.217 1919.78 244.383 1919.75 244.75C1919.7 245.47 1919.78 246.157 1920 246.81Z" fill="#A76FBE"/>
<path d="M0 189.92V185.06L330.97 185.04C331.116 185.04 331.259 185.012 331.393 184.957C331.527 184.902 331.648 184.822 331.75 184.72C343.59 172.913 355.43 161.097 367.27 149.27C369.72 146.82 364.5 142.05 370.76 138.02C378.08 133.3 386.4 141.72 381.37 149.12C378.53 153.3 375.06 151.54 371 152.09C370.647 152.137 370.343 152.287 370.09 152.54L334.32 188.28C334.095 188.505 333.828 188.682 333.535 188.803C333.241 188.923 332.927 188.983 332.61 188.98C294.85 188.89 257.15 189.96 219.44 189.98C146.293 190.04 73.1467 190.02 0 189.92Z" fill="#A76FBE"/>
<path d="M1207.07 144.01C1277.82 143.91 1348.53 145.37 1419.31 144.92C1419.64 144.917 1419.97 144.979 1420.27 145.105C1420.58 145.23 1420.86 145.415 1421.09 145.65C1431.98 156.523 1442.79 167.71 1453.54 179.21C1454.49 180.223 1455.54 181.107 1456.69 181.86C1456.98 182.047 1457.29 182.127 1457.63 182.1C1464.84 181.54 1470.9 181.66 1471.11 190.7C1471.38 201.97 1453.47 202.31 1452.95 191.24C1452.88 189.59 1454.28 186.9 1452.73 185.27C1447.74 180.01 1436.11 168.433 1417.85 150.54C1417.6 150.3 1417.31 150.16 1416.98 150.12C1411.91 149.56 1407.64 149.28 1404.18 149.28C1371.66 149.27 1343.43 150.08 1313.86 149.8C1310.99 149.773 1306.42 149.817 1300.15 149.93C1270.22 150.48 1240.18 149.99 1210.24 149.99C1207.13 149.99 1206.38 150.76 1204.55 152.91C1197.9 160.79 1185.61 153.04 1189.41 144.28C1192.67 136.78 1202.27 135.51 1206.26 143.51C1206.43 143.843 1206.7 144.01 1207.07 144.01Z" fill="#A76FBE"/>
<path d="M1920 306.75V312.81C1919.75 313.177 1919.68 313.623 1919.77 314.15C1919.84 314.583 1919.66 314.793 1919.22 314.78C1917.88 314.72 1916.55 314.583 1915.23 314.37C1914.04 314.177 1914.04 313.967 1915.22 313.74L1917.77 313.26C1918.38 313.147 1918.38 312.997 1917.79 312.81C1916.09 312.277 1914.64 312.01 1913.44 312.01C1783.75 311.997 1654.05 311.993 1524.36 312C1520.99 312 1519.11 310.84 1516.9 308.6C1473.95 265.293 1430.85 222.12 1387.62 179.08C1386.77 178.23 1385.53 177.96 1384.5 177.96C1309.66 178.31 1234.83 177.85 1159.97 178.04C1159.66 178.04 1159.35 178.116 1159.07 178.26C1158.8 178.405 1158.56 178.614 1158.38 178.87C1151.26 189.11 1137.82 177.01 1146.12 169.6C1150.51 165.68 1154.54 166.157 1158.21 171.03C1158.46 171.365 1158.79 171.636 1159.16 171.822C1159.54 172.007 1159.95 172.103 1160.37 172.1C1214.77 171.74 1269.13 171.983 1323.44 172.83C1339.83 173.09 1360.85 173.127 1386.5 172.94C1387.43 172.93 1388.81 173.25 1389.63 174.08C1434.02 218.613 1478.49 263.1 1523.04 307.54C1523.18 307.677 1523.34 307.781 1523.53 307.846C1523.71 307.91 1523.91 307.932 1524.1 307.91C1529.22 307.383 1534.46 307.12 1539.81 307.12C1663.38 307.027 1786.94 306.99 1910.5 307.01C1911.63 307.01 1913.14 306.893 1915.02 306.66C1915.35 306.62 1915.62 306.48 1915.85 306.24C1917.52 304.447 1918.9 304.617 1920 306.75Z" fill="#A76FBE"/>
<path d="M256.19 182.64C256.57 182.18 257.04 182.003 257.6 182.11C258.113 182.21 258.14 182.383 257.68 182.63C256.3 183.37 254.817 183.72 253.23 183.68C252.65 183.66 252.627 183.54 253.16 183.32C253.867 183.02 254.55 182.917 255.21 183.01C255.603 183.07 255.93 182.947 256.19 182.64Z" fill="#A76FBE"/>
<path d="M0 314.87V312.21C63.9 311.99 127.797 311.917 191.69 311.99C198.063 311.997 204.73 311.94 211.69 311.82C256.597 311.053 303.45 310.807 352.25 311.08C353.9 311.09 354.28 310.1 355.24 309.14C394.047 270.313 432.867 231.5 471.7 192.7C474.39 190.01 476.06 189 480.12 189C563.413 189 646.707 189 730 189C733.01 189 734.44 189.19 736.7 191.37C745.207 199.557 753.563 207.88 761.77 216.34C762.063 216.64 762.103 216.973 761.89 217.34L760.41 219.84C760.15 220.287 759.837 220.327 759.47 219.96C756.02 216.52 733.78 193 731.26 193C646.933 193 562.58 193 478.2 193C477.841 193 477.5 193.141 477.25 193.39L356.29 314.27C355.81 314.75 355.159 315.02 354.48 315.02L0 314.87Z" fill="#A76FBE"/>
<path d="M1271.83 212.61C1269.95 216.86 1266.04 219 1261.48 217.81C1250.01 214.81 1254.54 198.65 1265.14 200.21C1270.11 200.94 1271.83 207 1275.24 207C1304.08 207 1332.92 207.02 1361.75 207.06C1363.91 207.06 1404.04 248.67 1408.92 253.61C1409.16 253.85 1409.45 253.973 1409.79 253.98C1411.38 254.01 1412.94 253.26 1414.2 253.21C1420.01 252.98 1423.91 257.59 1423.4 263.16C1422.71 270.72 1414.7 273.3 1409.09 268.73C1405.97 266.19 1406.12 261.74 1405.91 258.16C1405.89 257.813 1405.76 257.517 1405.52 257.27C1393.55 244.977 1381.65 232.62 1369.83 220.2C1369.22 219.553 1368.18 218.587 1366.72 217.3C1363.49 214.46 1362.76 212.01 1357.82 212.01C1329.49 211.997 1301.14 211.993 1272.76 212C1272.56 212 1272.37 212.057 1272.21 212.165C1272.04 212.274 1271.91 212.428 1271.83 212.61Z" fill="#A76FBE"/>
<path d="M1214.14 207.48C1217.16 204.35 1219.98 200.93 1224.66 201.81C1234.18 203.59 1233.68 213.33 1227.73 218.74C1219.54 226.17 1217.44 213.9 1211.5 213.93C1193.29 213.99 1175.08 214.007 1156.87 213.98C1156.52 213.98 1156.26 213.833 1156.07 213.54L1153.64 209.63C1153.37 209.19 1153.49 208.967 1154 208.96L1213.25 207.86C1213.6 207.853 1213.89 207.727 1214.14 207.48Z" fill="#A76FBE"/>
<path d="M723.52 217.9L748.53 243.09C748.79 243.343 748.913 243.653 748.9 244.02C748.847 245.447 748.373 246.747 747.48 247.92C747.24 248.24 746.977 248.26 746.69 247.98C738.71 240.193 730.8 232.343 722.96 224.43C720.28 221.72 718.27 221.43 714.7 222.24C714.373 222.313 714.053 222.293 713.74 222.18C706.41 219.43 705.62 211.25 712.8 207.84C719.8 204.52 725.62 209.58 723.32 217.08C723.278 217.223 723.274 217.374 723.309 217.519C723.344 217.663 723.417 217.794 723.52 217.9Z" fill="#A76FBE"/>
<path d="M659.06 213.77C664.18 205.74 675.55 205.95 677.26 216.02C678.59 223.85 668 228.92 662.07 223.71C660.75 222.55 659.17 219.03 656.69 219.02C615.31 218.91 571.36 219.96 532.5 220.02C531.293 220.027 530.37 220.043 529.73 220.07C529.37 220.083 529.073 220.227 528.84 220.5C527.29 222.35 525.37 224.73 523.29 225.64C515.41 229.13 506.21 216.76 514.06 210.59C519.88 206.02 524.33 208.13 528.55 213.24C528.77 213.5 529.043 213.657 529.37 213.71C530.27 213.87 531.397 213.953 532.75 213.96C574.763 214.1 616.757 214.097 658.73 213.95C658.794 213.95 658.858 213.934 658.915 213.902C658.973 213.871 659.023 213.826 659.06 213.77Z" fill="#A76FBE"/>
<path d="M1920 277.81V284.81C1919.78 285.25 1919.7 285.74 1919.75 286.28C1919.78 286.66 1919.61 286.833 1919.23 286.8L1915.15 286.44C1914 286.34 1913.96 286.07 1915.03 285.63L1915.79 285.32C1916.08 285.2 1916.21 284.98 1916.18 284.66C1916.04 283.27 1868.78 284.79 1863.94 284.81C1804.71 284.97 1745.48 285.04 1686.25 285.02C1686.08 285.013 1685.91 284.977 1685.76 284.91C1685.53 284.797 1685.28 284.743 1685.02 284.75C1621.09 285.177 1577.27 285.243 1553.56 284.95C1549.44 284.89 1538.71 273.34 1536.31 270.94C1525.88 260.447 1515.44 249.963 1504.99 239.49C1500.57 235.07 1499.66 238.14 1494.91 237.42C1487.45 236.29 1486.87 225.52 1491.88 221.8C1497.33 217.75 1504.62 220.15 1506.72 226.74C1507.39 228.87 1506.47 230.91 1506.22 233.14C1506.18 233.52 1506.3 233.843 1506.57 234.11L1551.07 278.47C1551.47 278.861 1552 279.08 1552.55 279.08C1592.32 278.78 1632.16 279.01 1672.07 279.77C1679.14 279.903 1685.8 279.973 1692.06 279.98C1765.85 280.013 1839.65 280 1913.44 279.94C1914.78 279.94 1916.11 279.833 1917.43 279.62C1920.44 279.133 1920.44 278.86 1917.43 278.8C1916.25 278.78 1915.1 278.583 1913.98 278.21C1913.69 278.117 1913.68 278.01 1913.97 277.89C1916 277.05 1918.01 277.023 1920 277.81Z" fill="#A76FBE"/>
<path d="M497.76 236.94C498.34 237.02 499.003 237.057 499.75 237.05C534.257 236.777 570.697 237.007 609.07 237.74C641.59 238.36 674.19 238.04 706.7 237.98C707.149 237.979 707.58 238.155 707.9 238.47C718.067 248.437 728.13 258.47 738.09 268.57C740.4 270.92 740.85 272.99 738.83 275.6C738.637 275.853 738.43 275.867 738.21 275.64C727.54 264.86 716.9 253.37 705.56 243.34C705.3 243.113 704.997 243 704.65 243L499.25 243.02C498.91 243.027 498.603 243.137 498.33 243.35C495.23 245.81 493.96 249.57 489.03 249.1C478.71 248.11 475.98 233.98 486.59 231.85C490.917 230.983 494.383 232.517 496.99 236.45C497.17 236.73 497.427 236.893 497.76 236.94Z" fill="#A76FBE"/>
<path d="M1342.78 242.25C1342.72 242.172 1342.65 242.109 1342.56 242.066C1342.48 242.023 1342.38 242 1342.29 242H1170.59C1170.25 242 1170.02 241.847 1169.89 241.54L1168.25 237.74C1168.04 237.253 1168.21 237.01 1168.74 237.01C1225.8 236.99 1282.85 236.99 1339.9 237.01C1343.14 237.01 1344.49 235.64 1346.06 233.14C1346.24 232.847 1346.5 232.65 1346.83 232.55C1356.63 229.55 1362.58 241.62 1354.35 246.18C1349.99 248.6 1345.47 245.81 1342.78 242.25Z" fill="#A76FBE"/>
<path d="M0 252.95V249.19C16.77 248.86 33.75 249.66 50.46 248.5C54.6 248.22 58.5067 248.073 62.18 248.06C153.97 247.72 221.37 247.58 298 250.55C299.86 250.623 301.72 250.213 303.58 249.32C308.32 247.05 309.38 240.45 316 243.47C326.49 248.24 323.2 262.93 311.04 260.88C305.87 260.01 306.65 254.02 300.44 254.05C264.08 254.2 227.76 253.03 191.43 253.03C127.617 253.017 63.8067 252.99 0 252.95Z" fill="#A76FBE"/>
<path d="M0 345.86V343.26C62.64 343.51 125.34 342.99 187.99 343C218.22 343.01 248.89 341.8 273.44 341.9C321.3 342.107 352.717 342.127 367.69 341.96C368.72 341.95 370.63 340.86 371.52 339.96C394.74 316.707 418.003 293.487 441.31 270.3C442.65 268.97 441.73 265.21 441.8 263.83C442.34 253.07 458.73 253.05 459.53 263.99C460.01 270.53 453.49 275.68 447.1 273.27C446.936 273.207 446.758 273.193 446.587 273.229C446.417 273.264 446.262 273.348 446.14 273.47C422.07 297.52 398.46 322.48 373.28 345.28C372.273 346.187 371.533 346.643 371.06 346.65C323.26 347.237 275.467 347.03 227.68 346.03C220.747 345.883 214.087 345.82 207.7 345.84C138.467 346.08 69.2333 346.087 0 345.86Z" fill="#A76FBE"/>
<path d="M336.73 370.61C334.27 376.62 327.88 377.41 323.89 372.54C318.33 365.76 324.98 355.52 333.47 361.32C336.27 363.23 337.03 365.89 341.53 366.1C352.597 366.613 363.667 366.82 374.74 366.72C378.69 366.68 384.07 366.49 387.05 363.5C405.12 345.33 422.97 326.81 441.58 309.21C455.153 296.383 468.44 283.27 481.44 269.87C482.16 269.13 483.69 268.06 484.73 268.06C501.41 268.02 518.087 267.81 534.76 267.43C556.37 266.93 578.12 267.87 599.75 268.04C602.33 268.06 602.98 268.19 604.39 265.79C607.21 260.97 613.38 260.42 616.86 264.66C623.38 272.61 612.12 283.07 604.52 274.12C602.44 271.68 601.98 272.04 599 272.03C562.047 271.937 525.097 271.927 488.15 272C484.72 272.01 482.9 273.4 480.66 275.66C450.433 306.1 420.15 336.483 389.81 366.81C387.55 369.08 385.84 370 382.44 370C367.547 370 352.613 370 337.64 370C337.445 369.999 337.254 370.057 337.092 370.166C336.93 370.275 336.804 370.429 336.73 370.61Z" fill="#A76FBE"/>
<path d="M695.4 276.98C693.24 277.01 690.84 277.59 688.89 276.76C680.5 273.19 685.79 257.83 695.77 262.85C699.27 264.603 700.69 267.91 700.03 272.77C699.88 273.85 700.3 274.97 701.15 275.79C713.857 288.13 724.307 298.617 732.5 307.25C734.093 308.93 734.33 310.863 733.21 313.05C733.057 313.35 732.86 313.38 732.62 313.14L697.24 277.73C696.999 277.49 696.713 277.299 696.397 277.171C696.081 277.042 695.742 276.977 695.4 276.98Z" fill="#A76FBE"/>
<path d="M1303.53 270.49C1310.77 257.54 1327.58 268.9 1319.11 279.57C1314.11 285.86 1307.39 281.96 1303.54 276.87C1303.33 276.599 1303.07 276.38 1302.77 276.229C1302.46 276.078 1302.13 276 1301.79 276H1181.52C1181.17 276 1180.95 275.83 1180.86 275.49L1179.82 271.51C1179.73 271.17 1179.87 271 1180.22 271H1302.66C1302.84 271 1303.01 270.952 1303.17 270.863C1303.32 270.773 1303.45 270.644 1303.53 270.49Z" fill="#A76FBE"/>
<path d="M1453.13 282.55C1456.45 278.4 1460.44 274.98 1466.05 277.93C1478.63 284.56 1464.08 303.55 1454.18 290.58C1453.55 289.76 1451.91 288.99 1450.69 288.99C1411.02 289.03 1371.34 289.013 1331.67 288.94C1331.34 288.94 1331.03 289.033 1330.74 289.22C1329.53 290.027 1328.67 290.68 1328.18 291.18C1314.85 304.87 1295.74 325.46 1277.58 340.69C1277.33 340.897 1277.05 341 1276.73 341H1187.38C1186.96 341 1186.75 340.79 1186.75 340.37V336.63C1186.75 336.21 1186.96 336 1187.37 336L1274.97 335.99C1275.15 335.99 1275.34 335.954 1275.51 335.884C1275.68 335.813 1275.83 335.71 1275.96 335.58C1291.65 319.993 1307.29 304.263 1322.89 288.39C1327.17 284.05 1330.45 283.01 1336.89 283.01C1375.3 282.997 1413.73 282.993 1452.18 283C1452.36 283 1452.54 282.96 1452.71 282.882C1452.87 282.804 1453.01 282.691 1453.13 282.55Z" fill="#A76FBE"/>
<path d="M0 394.98V390.19L399.91 390.07C400.1 390.07 400.289 390.032 400.466 389.958C400.643 389.885 400.804 389.776 400.94 389.64L493.83 296.68C494.042 296.465 494.296 296.294 494.575 296.177C494.855 296.06 495.156 296 495.46 296C558.127 295.993 620.89 295.997 683.75 296.01C686.53 296.01 687.84 296.49 689.88 298.52C703.84 312.333 717.713 326.227 731.5 340.2C733.88 342.62 734.06 345.32 733.91 348.45C733.905 348.514 733.883 348.576 733.845 348.628C733.807 348.68 733.756 348.72 733.698 348.744C733.639 348.768 733.575 348.775 733.514 348.764C733.452 348.752 733.395 348.723 733.35 348.68C717.017 333.507 701.21 318.053 685.93 302.32C685.31 301.67 683.9 301 682.82 301C620.88 301.013 558.943 301.01 497.01 300.99C496.677 300.99 496.393 301.107 496.16 301.34C448.753 348.513 419.043 378.24 407.03 390.52C402.63 395.01 400.2 396.07 393.53 396C369.67 395.76 345.78 395.03 321.93 395.03C214.617 395.003 107.307 394.987 0 394.98Z" fill="#A76FBE"/>
<path d="M1246.57 307.68C1246.32 307.504 1246.03 307.413 1245.73 307.42L1187.18 308.15C1186.91 308.152 1186.65 308.056 1186.45 307.88C1186.24 307.703 1186.11 307.458 1186.07 307.19L1185.71 304.55C1185.66 304.183 1185.81 304 1186.18 304C1204.57 303.99 1223.04 303.24 1241.49 304.31C1247.6 304.66 1249.76 301.13 1254.11 297.89C1254.36 297.703 1254.63 297.617 1254.94 297.63C1270.61 298.03 1262.97 320.23 1253.17 312.58C1250.91 310.82 1248.71 309.187 1246.57 307.68Z" fill="#A76FBE"/>
<path d="M1407.81 309.52C1411.11 302.88 1418.32 302.73 1422.83 308.17C1427.54 313.87 1418.57 322.33 1412.39 319.25C1410.43 318.28 1409.49 315.92 1407.69 314.33C1407.44 314.103 1407.14 313.99 1406.79 313.99C1392.26 314.01 1377.74 314.01 1363.23 313.99C1358.66 313.98 1357.5 315.01 1354.52 318.02C1335.02 337.667 1315.48 357.137 1295.9 376.43C1295.53 376.795 1295.03 377 1294.51 377H1182.19C1181.81 377 1181.66 376.813 1181.75 376.44L1182.41 373.45C1182.48 373.15 1182.67 373 1182.98 373H1292.77C1293.18 373 1293.58 372.838 1293.87 372.55C1313.71 352.91 1333.52 333.163 1353.31 313.31C1355.72 310.89 1358.28 309.7 1361 309.74C1376.33 309.953 1391.67 310.05 1407 310.03C1407.37 310.023 1407.64 309.853 1407.81 309.52Z" fill="#A76FBE"/>
<path d="M0 415.84V413.05C53.1667 413.017 106.337 412.987 159.51 412.96C184.44 412.94 209.37 412.05 234.3 412.04C299.18 411.987 364.057 411.977 428.93 412.01C434.54 412.01 437.36 413.14 441.82 408.7C469.667 380.947 497.443 353.197 525.15 325.45C525.438 325.162 525.826 325 526.23 325H650.95C651.242 325 651.53 324.933 651.792 324.805C652.054 324.677 652.282 324.49 652.46 324.26C654.17 322.07 656.44 319.9 659.14 319.12C671.91 315.45 669.78 335.36 660.23 334.99C657.17 334.87 654.72 330.98 652.58 329.29C652.327 329.097 652.043 329 651.73 329H528.47C528.191 329 527.915 329.056 527.657 329.164C527.4 329.272 527.166 329.43 526.97 329.63C499.103 357.517 471.2 385.393 443.26 413.26C441.34 415.173 438.567 416.127 434.94 416.12C362.293 416.04 289.647 416.007 217 416.02C205.17 416.02 192.67 415.78 183.9 415.82C122.6 416.093 61.3 416.1 0 415.84Z" fill="#A76FBE"/>
<path d="M1920 330.81V336.06L1919.69 337.42C1919.62 337.733 1919.42 337.87 1919.11 337.83L1914.79 337.32C1913.91 337.213 1913.89 337.03 1914.74 336.77C1915.77 336.45 1916.84 336.37 1917.94 336.53C1918.27 336.577 1918.45 336.433 1918.48 336.1C1918.55 335.3 1912.5 335.01 1911.91 335.01C1859.6 334.983 1807.3 334.987 1754.99 335.02C1730.32 335.03 1703.88 335.9 1683.81 335.93C1587.88 336.07 1491.94 336.04 1396 335.84C1393.39 335.833 1390.77 335.873 1388.15 335.96C1387.79 335.973 1387.48 336.107 1387.22 336.36L1311.95 411.62C1311.83 411.741 1311.69 411.836 1311.53 411.902C1311.37 411.967 1311.2 412 1311.03 412H1171.54C1171.09 412 1170.94 411.79 1171.11 411.37L1172.68 407.46C1172.8 407.153 1173.02 407 1173.35 407H1307.76C1308 407 1308.24 406.952 1308.46 406.86C1308.68 406.767 1308.88 406.631 1309.05 406.46C1331.72 383.21 1353.82 359.75 1378.12 338.13C1382.37 334.36 1386.76 330.17 1392.25 330.19C1414.44 330.28 1436.63 330.98 1458.8 330.98C1609.16 331.007 1759.52 331.01 1909.88 330.99C1912.66 330.99 1915.45 330.67 1918.25 330.46C1918.43 330.447 1918.57 330.363 1918.66 330.21C1918.96 329.72 1913.6 329.19 1913.47 329.16C1912.64 329.013 1912.65 328.9 1913.49 328.82L1919.26 328.27C1919.65 328.23 1919.82 328.403 1919.77 328.79C1919.67 329.583 1919.75 330.257 1920 330.81Z" fill="#A76FBE"/>
<path d="M740.51 402.09C725.883 387.097 711.06 372.3 696.04 357.7C694.967 356.653 692.76 354.84 689.42 352.26C689.153 352.053 688.853 351.953 688.52 351.96C653.007 352.107 617.5 352.023 582 351.71C577.487 351.67 572.987 351.423 568.5 350.97C568.147 350.937 567.83 351.03 567.55 351.25C563.59 354.36 558.67 362.58 553.4 355.68C550.24 351.56 550.29 345.17 555.23 342.52C560.22 339.85 562.98 343.52 566.31 346.65C566.557 346.877 566.85 346.99 567.19 346.99C606.21 346.997 645.23 347.01 684.25 347.03C686.49 347.03 688.727 347.14 690.96 347.36C691.293 347.393 691.587 347.513 691.84 347.72C693.533 349.1 695.143 350.55 696.67 352.07C712.33 367.663 727.937 383.303 743.49 398.99C746.21 401.73 747.92 409.24 749.61 413.03C749.77 413.383 749.67 413.637 749.31 413.79C745.42 415.4 741.17 412.22 740.08 408.57C739.5 406.65 740.31 404.98 740.76 403.01C740.847 402.657 740.763 402.35 740.51 402.09Z" fill="#A76FBE"/>
<path d="M1920 360.77V366.56C1918.66 366.893 1917.33 366.873 1916.02 366.5C1915.57 366.373 1915.56 366.293 1916.01 366.26C1916.23 366.247 1916.42 366.183 1916.59 366.07C1917.04 365.763 1916.99 365.587 1916.46 365.54C1914.92 365.4 1913.26 365 1911.74 365C1744.59 365 1577.42 365 1410.22 365C1409.82 365 1409.43 365.162 1409.14 365.45L1357.25 417.29C1357.12 417.423 1357.08 417.58 1357.15 417.76C1358.74 422.067 1357.82 425.533 1354.38 428.16C1343.88 436.17 1335.51 408.18 1353.36 414.25C1353.69 414.363 1353.99 414.31 1354.26 414.09C1354.98 413.51 1355.65 412.907 1356.28 412.28C1372.18 396.18 1388.14 380.143 1404.17 364.17C1406.42 361.93 1408.6 361 1411.97 361C1578.65 361 1745.33 360.95 1912 360.85C1913.03 360.85 1914.05 360.8 1915.07 360.7C1915.35 360.673 1915.49 360.517 1915.5 360.23C1915.5 360.143 1915.5 360.053 1915.5 359.96C1915.49 359.687 1915.61 359.497 1915.86 359.39C1918.03 358.47 1919.41 358.93 1920 360.77Z" fill="#A76FBE"/>
<path d="M0 369.94V366.06C94.89 365.97 189.79 366.29 284.69 365.95C285.55 365.94 286.8 364.86 287.47 364.02C295.22 354.33 306.3 363.75 299.23 373.31C294.37 379.87 289.83 374.61 286.48 370.4C286.26 370.12 285.973 369.98 285.62 369.98L0 369.94Z" fill="#A76FBE"/>
<path d="M756.71 446.83C762.99 444.6 768.67 447.47 769.35 454.2C770.29 463.57 761.76 467.12 754.66 462.07C750.47 459.09 752.14 455.69 752.15 451.33C752.15 450.97 752.023 450.667 751.77 450.42L680.07 378.48C679.931 378.338 679.764 378.225 679.578 378.147C679.393 378.07 679.193 378.03 678.99 378.03C629.49 378.02 579.96 378.53 530.5 377.24C530.16 377.227 529.85 377.323 529.57 377.53C526.9 379.54 524.28 382.86 521.51 383.75C512.17 386.75 504.91 367.87 517.52 365.68C521.74 364.94 526.1 366.38 527.94 370.6C528.121 371.016 528.42 371.369 528.8 371.618C529.18 371.867 529.625 371.999 530.08 372C579.08 372 628.053 372 677 372C679.74 372 681.73 372.26 683.79 374.33C707.77 398.41 731.923 422.543 756.25 446.73C756.31 446.789 756.385 446.83 756.467 446.848C756.548 446.866 756.633 446.859 756.71 446.83Z" fill="#A76FBE"/>
<path d="M1478.14 385.61C1475.81 390.76 1469.54 392.58 1465.18 388.94C1457.66 382.67 1468.78 366.31 1477.99 380.51C1478.18 380.81 1478.46 380.96 1478.81 380.96C1504.37 381.11 1529.95 380.55 1555.49 380.98C1568.98 381.213 1584.42 381.247 1601.81 381.08C1616.43 380.933 1644.97 380.913 1687.43 381.02C1689.85 381.02 1691.38 381.48 1693.1 379.43C1700.68 370.41 1711.67 378.61 1705.33 388.58C1702.86 392.45 1699.55 392.2 1696.18 389.58C1693.29 387.34 1691.27 385.05 1687.12 385.05C1652.25 385.043 1617.37 384.797 1582.5 384.31C1575.98 384.223 1569.32 384.243 1562.51 384.37C1535.07 384.877 1507.27 385.083 1479.11 384.99C1478.9 384.99 1478.7 385.049 1478.53 385.159C1478.36 385.269 1478.22 385.425 1478.14 385.61Z" fill="#A76FBE"/>
<path d="M1279.31 461.43C1273.1 474.23 1255.68 460.15 1267.58 452.56C1274.01 448.47 1275.92 452.91 1280.18 456.68C1280.42 456.893 1280.7 457 1281.02 457H1363.75C1364.1 457 1364.43 456.863 1364.68 456.62C1379.22 442.527 1393.56 428.213 1407.69 413.68C1409.83 411.473 1411.81 409.123 1413.62 406.63C1413.82 406.35 1413.91 406.04 1413.89 405.7C1413.81 404.327 1413.84 402.973 1413.99 401.64C1414.79 394.29 1424.84 391.98 1428.45 398.59C1430.21 401.83 1429.64 407.77 1425.71 409.5C1423.54 410.45 1419.62 409.93 1416.96 410.03C1416.62 410.043 1416.34 410.18 1416.12 410.44C1412.63 414.6 1409.69 417.883 1407.3 420.29C1387.16 440.623 1373.87 453.833 1367.42 459.92C1366.66 460.62 1364.07 460.99 1362.73 460.99C1335.18 461.003 1307.61 461.007 1280 461C1279.68 461 1279.45 461.143 1279.31 461.43Z" fill="#A76FBE"/>
<path d="M703.64 435.01C709.3 433.28 713.83 436.34 714.54 442.08C715.81 452.29 700.1 452.83 698.82 442.91C698.63 441.43 699.26 439.56 698.8 437.69C698.727 437.37 698.573 437.093 698.34 436.86C687.087 425.713 675.877 414.523 664.71 403.29C663.99 402.57 662.8 402.24 661.68 402.26C621.787 403.027 581.893 403.24 542 402.9C537.64 402.87 538.1 397.96 542.9 397.98C585.14 398.1 619.66 397.28 657.05 398.09C661.61 398.18 664.63 397.4 668.27 400.95C679.41 411.817 690.627 423.023 701.92 434.57C702.407 435.063 702.98 435.21 703.64 435.01Z" fill="#A76FBE"/>
<path d="M1920 406.81V412.81C1919.79 413.237 1919.7 413.71 1919.74 414.23C1919.77 414.59 1919.61 414.77 1919.25 414.77C1917.96 414.77 1916.69 414.6 1915.44 414.26C1914.88 414.107 1914.89 413.973 1915.46 413.86L1918.01 413.34C1918.8 413.173 1918.81 412.993 1918.02 412.8C1915.89 412.273 1914.03 412.01 1912.44 412.01C1794.13 411.99 1675.81 411.993 1557.5 412.02C1533.18 412.02 1508.82 412.76 1484.5 413.08C1483.03 413.1 1481.91 413.157 1481.15 413.25C1480.77 413.29 1480.5 413.487 1480.35 413.84C1474.94 426.01 1458.52 415.36 1464.39 405.99C1466.68 402.343 1470.22 400.797 1475.03 401.35C1475.34 401.39 1475.62 401.513 1475.85 401.72L1481.32 406.61C1481.61 406.87 1481.95 407 1482.34 407C1625.23 407 1768.11 407 1911 407C1912.86 407 1914.72 406.67 1916.57 406.43C1916.85 406.397 1916.92 406.257 1916.77 406.01L1916.63 405.77C1916.45 405.463 1916.54 405.303 1916.89 405.29L1919.09 405.18C1919.44 405.16 1919.65 405.317 1919.73 405.65L1920 406.81Z" fill="#A76FBE"/>
<path d="M513.2 424.18C513.233 424.14 513.27 424.1 513.31 424.06C513.357 424.02 513.49 424 513.71 424C560.137 424.007 606.57 424.003 653.01 423.99C658 423.99 660.37 427.99 663.46 431.04C676.847 444.213 690.12 457.507 703.28 470.92C705.27 472.95 706.76 473.74 709.35 472.35C709.65 472.19 709.967 472.133 710.3 472.18C717.227 473.107 720.343 476.67 719.65 482.87C718.3 494.98 700.12 492.49 702.03 477.75C702.123 476.983 701.877 476.303 701.29 475.71C686.863 461.137 672.32 446.68 657.66 432.34C656.24 430.953 654.75 430.257 653.19 430.25C606.47 430.077 559.753 429.98 513.04 429.96C512.693 429.96 512.44 430.117 512.28 430.43C511.14 432.697 509.52 434.327 507.42 435.32C496.49 440.48 488.1 421.12 502.44 418.29C506.887 417.417 510.237 419.303 512.49 423.95C512.703 424.39 512.94 424.467 513.2 424.18Z" fill="#A76FBE"/>
<path d="M1286.81 436H1160.73C1160.06 436 1159.88 435.7 1160.18 435.1L1161.95 431.54C1162.13 431.18 1162.42 431 1162.83 431H1286.27C1286.49 431 1286.71 430.948 1286.9 430.849C1287.1 430.75 1287.26 430.606 1287.39 430.43C1299.64 413.46 1313.15 435.91 1299.62 441.28C1294.71 443.227 1290.71 441.62 1287.62 436.46C1287.44 436.153 1287.17 436 1286.81 436Z" fill="#A76FBE"/>
<path d="M1424.18 440.48C1408.54 456.033 1392.89 471.58 1377.22 487.12C1372.53 491.76 1377.86 498.46 1369.99 501.16C1359.88 504.63 1355.87 490.4 1363.73 486.89C1366.11 485.82 1369.37 486.05 1372.33 485.89C1372.76 485.87 1373.12 485.707 1373.42 485.4L1420.48 437.09C1420.73 436.823 1420.88 436.503 1420.91 436.13C1421.39 430.1 1420.78 424.19 1429.26 424.83C1438.19 425.51 1438.96 436.4 1431.21 439.59C1429.38 440.34 1427.18 439.82 1425.04 440.06C1424.71 440.1 1424.42 440.24 1424.18 440.48Z" fill="#A76FBE"/>
<path d="M1592.17 430.65C1597.8 415.08 1616.92 437.02 1600.25 440.73C1596.42 441.577 1593.43 439.943 1591.26 435.83C1591.13 435.586 1590.94 435.382 1590.71 435.239C1590.47 435.096 1590.2 435.02 1589.93 435.02L1507 435C1506.67 435 1506.39 435.11 1506.16 435.33C1505.02 436.41 1503.94 437.523 1502.91 438.67C1496.39 445.97 1485.36 435.74 1491.85 428.59C1495.47 424.61 1502.76 424.56 1504.61 430.32C1504.67 430.518 1504.8 430.69 1504.97 430.812C1505.14 430.934 1505.34 431 1505.55 431H1591.68C1591.79 431 1591.89 430.966 1591.98 430.903C1592.06 430.841 1592.13 430.752 1592.17 430.65Z" fill="#A76FBE"/>
<path d="M0 441.19V439.03L408.34 439.01C408.638 439.011 408.931 438.924 409.183 438.761C409.435 438.598 409.635 438.365 409.76 438.09C411.853 433.443 415.05 431.853 419.35 433.32C429.98 436.95 422.69 454.25 412.79 446.85C412.537 446.657 412.327 446.42 412.16 446.14C410.547 443.407 407.827 442.037 404 442.03C269.71 441.91 135.4 441.19 1.12 442.05C0.773333 442.05 0.503333 441.91 0.31 441.63L0 441.19Z" fill="#A76FBE"/>
<path d="M602.91 456.61C608.03 461.523 613.163 466.633 618.31 471.94C620.163 473.847 622.307 474.81 624.74 474.83C636.187 474.923 647.623 474.993 659.05 475.04C659.397 475.04 659.69 474.917 659.93 474.67C662.47 472.13 664.4 469.2 668.3 468.85C676.4 468.14 682.14 481.07 674.44 485.45C670.507 487.69 666.9 487.587 663.62 485.14C659.97 482.42 661.55 480.02 655.26 480.01C643.44 479.997 631.823 479.993 620.41 480C619.737 480 619.09 479.734 618.61 479.26C612.503 473.147 606.457 467.003 600.47 460.83C596.72 456.96 592.64 460.84 589.05 458.32C578.19 450.7 589.64 436.3 599.64 443.13C603.273 445.61 604.187 449.337 602.38 454.31C602.053 455.19 602.23 455.957 602.91 456.61Z" fill="#A76FBE"/>
<path d="M1920 448.81V452.81C1919.78 453.25 1919.7 453.74 1919.75 454.28C1919.78 454.66 1919.61 454.827 1919.23 454.78L1915.26 454.3C1914.03 454.153 1914.03 453.983 1915.25 453.79L1917.81 453.38C1918.66 453.247 1918.66 453.077 1917.83 452.87C1915.49 452.297 1913.13 452.01 1910.75 452.01C1839.83 451.96 1768.85 451.42 1697.94 452.76C1691.13 452.893 1684.46 452.96 1677.95 452.96C1603.1 453.013 1528.26 453.023 1453.41 452.99C1445.61 452.98 1440.89 451.54 1434.93 457.43C1404.52 487.517 1374.42 517.92 1344.64 548.64C1344.33 548.953 1344.03 549.277 1343.73 549.61C1343.5 549.87 1343.22 550 1342.88 550C1232.84 550 1122.8 550.007 1012.75 550.02C1011.64 550.02 1010.55 549.897 1009.48 549.65C1009.12 549.563 1009.12 549.483 1009.48 549.41C1015.5 548.17 1021.46 546 1027.59 546C1131.2 546 1234.8 546 1338.4 546C1339.03 546 1339.68 545.73 1340.38 545.74C1340.71 545.753 1340.99 545.643 1341.22 545.41C1371.27 515.15 1401.39 484.95 1431.56 454.81C1439.19 447.2 1445.78 448.99 1455.52 448.99C1607.51 449.003 1759.51 449.007 1911.5 449C1912.63 449 1913.9 448.737 1915.29 448.21C1915.67 448.063 1915.72 447.843 1915.43 447.55L1915.18 447.31C1914.77 446.903 1914.86 446.667 1915.43 446.6L1919.21 446.19C1919.61 446.15 1919.79 446.327 1919.75 446.72C1919.69 447.46 1919.77 448.157 1920 448.81Z" fill="#A76FBE"/>
<path d="M1219.73 455.54C1224.43 446.91 1235.48 448.75 1237.18 458.06C1238.74 466.61 1227.94 470.51 1222.05 465.66C1220.63 464.49 1219.26 461.03 1216.94 461.03C1192.87 461.063 1168.84 461.04 1144.83 460.96C1144.75 460.961 1144.67 460.94 1144.61 460.899C1144.54 460.858 1144.48 460.798 1144.45 460.727C1144.41 460.655 1144.39 460.575 1144.4 460.494C1144.41 460.414 1144.43 460.336 1144.48 460.27L1146.69 457.11C1146.93 456.767 1147.25 456.488 1147.62 456.294C1147.99 456.101 1148.4 456 1148.82 456L1218.94 456.01C1219.29 456.01 1219.56 455.853 1219.73 455.54Z" fill="#A76FBE"/>
<path d="M542.67 466.14L582.99 506.47C583.158 506.638 583.358 506.771 583.577 506.862C583.797 506.953 584.032 507 584.27 507H819.71C820.05 507 820.363 507.1 820.65 507.3L824.56 510.03C824.656 510.094 824.728 510.187 824.765 510.296C824.803 510.404 824.805 510.522 824.77 510.631C824.735 510.741 824.665 510.836 824.571 510.902C824.478 510.969 824.365 511.003 824.25 511H582.23C581.883 511 581.587 510.88 581.34 510.64C567.847 497.44 554.523 484.107 541.37 470.64C537.38 466.56 531.64 472.11 528.29 465.25C521.44 451.2 546.21 449.81 542.23 464.49C542.151 464.778 542.149 465.083 542.227 465.373C542.304 465.663 542.457 465.928 542.67 466.14Z" fill="#A76FBE"/>
<path d="M0 464.19V460.19C93.56 459.91 187.12 459.887 280.68 460.12C347.78 460.28 426.37 459.62 479.25 460.03C480.343 460.043 481.48 460.647 482.66 461.84C507.173 486.66 531.773 511.393 556.46 536.04C556.9 536.47 558.21 536.96 559 536.96C684.58 537.093 784.663 537.063 859.25 536.87C862.64 536.86 868.44 534.52 871.33 537.1C871.537 537.287 871.577 537.5 871.45 537.74C869.85 540.82 867.373 542.24 864.02 542C859.19 541.65 854.55 541.97 850.77 541.97C752.517 542.01 654.427 542.017 556.5 541.99C555.859 541.99 555.245 541.739 554.79 541.29C530.017 516.677 505.34 491.993 480.76 467.24C479.17 465.64 479.13 465.11 476.61 465.1C430.003 464.807 383.4 464.917 336.8 465.43C330.09 465.5 321.75 465.32 314.35 465.1C291.383 464.393 275.413 464.037 266.44 464.03C181.18 463.99 95.9233 463.983 10.67 464.01C7.82 464.01 3.58 464.54 0 464.19Z" fill="#A76FBE"/>
<path d="M321.94 466.09L326.03 466.31C326.63 466.343 326.64 466.44 326.06 466.6C324.653 466.993 323.257 466.943 321.87 466.45C321.057 466.163 321.08 466.043 321.94 466.09Z" fill="#A76FBE"/>
<path d="M316.62 466.58C315.58 466.85 313.07 466.94 311.98 466.59C311.307 466.363 311.327 466.25 312.04 466.25H316.58C317.453 466.25 317.467 466.36 316.62 466.58Z" fill="#A76FBE"/>
<path d="M1537.67 476.91C1540.29 474.15 1542.45 471.42 1546.6 472.39C1560.51 475.63 1548.17 497.01 1538.21 483.65C1537.64 482.88 1536.24 481.98 1535.5 481.98C1509.33 482.013 1483.17 482.027 1457 482.02C1450.56 482.02 1439.49 493.2 1435.68 496.93C1419.73 512.543 1407.82 524.8 1399.94 533.7C1398.25 535.61 1399.28 539.32 1398.73 541.45C1397.84 544.857 1395.52 546.63 1391.78 546.77C1380.68 547.19 1380.55 529.54 1395.84 531.06C1396.19 531.093 1396.48 530.987 1396.73 530.74C1413.34 514.247 1429.85 497.677 1446.27 481.03C1446.99 480.297 1448.1 479.377 1449.61 478.27C1449.88 478.07 1450.18 477.97 1450.51 477.97C1478.26 478.01 1506 478.017 1533.75 477.99C1535.61 477.99 1536.28 478.37 1537.67 476.91Z" fill="#A76FBE"/>
<path d="M515.33 533.78C533.74 529.3 528.66 555.64 516.33 547.62C513.63 545.867 512.127 543.407 511.82 540.24C511.68 538.76 512.67 537.28 511.22 535.82C495.427 519.92 479.587 504.053 463.7 488.22C463.559 488.079 463.372 488 463.18 488H379.05C378.743 488 378.477 488.1 378.25 488.3C375.42 490.79 373.99 493.95 369.26 493.22C361.23 491.98 360.85 479.14 369.46 477.89C372.7 477.423 375.337 478.797 377.37 482.01C377.557 482.31 377.816 482.557 378.124 482.729C378.432 482.9 378.778 482.99 379.13 482.99C404.703 482.997 430.243 483.03 455.75 483.09C461.72 483.1 464.03 482.68 467.92 486.53C483.707 502.183 499.413 517.913 515.04 533.72C515.107 533.793 515.203 533.813 515.33 533.78Z" fill="#A76FBE"/>
<path d="M1329.65 482.63C1332.68 477.797 1336.43 476.56 1340.91 478.92C1350.54 484.01 1340.55 498.95 1332.77 491.94C1330.19 489.62 1329.41 487.99 1325.66 488C1257.7 488.007 1189.71 488.007 1121.7 488C1121.64 488.001 1121.58 487.984 1121.53 487.952C1121.48 487.92 1121.44 487.874 1121.42 487.819C1121.39 487.764 1121.39 487.704 1121.4 487.645C1121.41 487.586 1121.44 487.532 1121.48 487.49L1125.55 483.35C1125.78 483.117 1126.06 483 1126.39 483H1328.99C1329.28 483 1329.5 482.877 1329.65 482.63Z" fill="#A76FBE"/>
<path d="M393.73 506.87C417.743 507.157 435.5 507.187 447 506.96C450.92 506.88 452.36 507.1 455.27 509.93C463.403 517.87 471.45 525.89 479.41 533.99C484.08 538.75 492.52 532.47 493.5 543.4C494.64 556.14 474.22 551.83 478.82 540.98C478.98 540.603 479.023 540.187 478.945 539.786C478.866 539.385 478.67 539.017 478.38 538.73L450.81 511.46C450.516 511.166 450.116 511 449.7 511H395.45C395.103 511 394.761 511.073 394.444 511.212C394.127 511.351 393.843 511.555 393.61 511.81C390.1 515.64 386.25 520.02 380.95 515.48C372.42 508.17 383.16 496.6 390.33 502.9C391.33 503.78 391.97 505.17 392.85 506.41C393.07 506.71 393.363 506.863 393.73 506.87Z" fill="#A76FBE"/>
<path d="M1323.52 508.81C1328.39 505.57 1329.73 500.31 1337.18 504.31C1346.5 509.31 1339.79 523.92 1330.37 520.95C1327.66 520.09 1325.91 517.18 1323.57 515.3C1323.3 515.087 1323 514.98 1322.66 514.98C1270.91 515.03 1218.99 515.73 1167.26 514.75C1142.17 514.27 1117.07 514.007 1091.94 513.96C1090.75 513.96 1090.64 513.613 1091.61 512.92L1096.62 509.32C1096.89 509.12 1097.2 509.02 1097.54 509.02L1322.93 508.99C1323.14 508.99 1323.34 508.927 1323.52 508.81Z" fill="#A76FBE"/>
<path d="M1442.32 540.18C1443.63 545.47 1442.34 551.67 1435.52 551.23C1430.4 550.91 1422.73 545.08 1427.46 539.75C1431.05 535.69 1435.22 536.39 1439.58 535.76C1439.95 535.707 1440.26 535.533 1440.51 535.24C1448.47 525.853 1457.16 517.19 1466.59 509.25C1466.79 509.083 1467.02 509 1467.27 509H1512.77C1513.1 509 1513.43 508.923 1513.73 508.775C1514.02 508.628 1514.28 508.414 1514.48 508.15C1518.37 503.01 1522.69 502.07 1527.44 505.33C1535.21 510.66 1527.12 520.19 1519.39 518.72C1519.06 518.66 1518.8 518.5 1518.6 518.24C1516.19 515.2 1513.78 512.97 1509.6 512.98C1497.03 513.007 1484.47 513.01 1471.94 512.99C1468.19 512.99 1466.74 514.81 1464.25 517.24C1457.42 523.913 1450.65 530.65 1443.95 537.45C1443.4 538.01 1442.92 538.61 1442.49 539.25C1442.3 539.537 1442.24 539.847 1442.32 540.18Z" fill="#A76FBE"/>
<path d="M884.92 564.43C890.34 559.043 895.88 553.583 901.54 548.05C902.83 546.78 904.54 548.19 905.95 548.52C907.097 548.793 907.253 549.347 906.42 550.18L887.45 569.19C886.944 569.695 886.257 569.979 885.54 569.98C844.42 570.07 802.97 570.64 761.75 569.3C757.16 569.15 753.89 572.76 750.59 575.36C750.323 575.573 750.023 575.683 749.69 575.69C734.19 576.12 742.4 555.62 750.26 559.46C752.32 560.47 754.46 563.08 756.42 564.7C756.66 564.9 756.94 565 757.26 565H883.53C884.07 565 884.533 564.81 884.92 564.43Z" fill="#A76FBE"/>
</g>
<defs>
<clipPath id="clip0_904_27883">
<rect width="1920" height="655" fill="white"/>
</clipPath>
</defs>
</svg>
