<svg width="112" height="87" viewBox="0 0 112 87" fill="none" xmlns="http://www.w3.org/2000/svg">
<path d="M94.8746 7.26101C87.6247 3.86894 79.8727 1.40372 71.7682 0C70.7729 1.79952 69.61 4.21991 68.8083 6.14532C60.193 4.84968 51.6569 4.84968 43.2001 6.14532C42.3985 4.21991 41.2093 1.79952 40.205 0C32.0918 1.40372 24.3309 3.878 17.0809 7.27898C2.45767 29.3766 -1.50645 50.9254 0.475611 72.1681C10.1745 79.411 19.5739 83.8109 28.8147 86.69C31.0963 83.5499 33.1312 80.2118 34.8842 76.6939C31.5455 75.4253 28.3478 73.8597 25.3263 72.0422C26.1279 71.4484 26.912 70.8275 27.6695 70.1887C46.0982 78.8083 66.1215 78.8083 84.3301 70.1887C85.0965 70.8275 85.8804 71.4484 86.6733 72.0422C83.6429 73.8686 80.4364 75.4342 77.0978 76.7029C78.8508 80.2118 80.8769 83.5589 83.1673 86.6989C92.4169 83.8198 101.825 79.4201 111.524 72.1681C113.85 47.5423 107.551 26.1915 94.8746 7.26101ZM37.3948 59.104C31.8627 59.104 27.3259 53.9394 27.3259 47.6503C27.3259 41.3611 31.7658 36.1876 37.3948 36.1876C43.024 36.1876 47.5606 41.352 47.4637 47.6503C47.4725 53.9394 43.024 59.104 37.3948 59.104ZM74.6048 59.104C69.0727 59.104 64.5359 53.9394 64.5359 47.6503C64.5359 41.3611 68.9756 36.1876 74.6048 36.1876C80.2338 36.1876 84.7706 41.352 84.6737 47.6503C84.6737 53.9394 80.2338 59.104 74.6048 59.104Z" fill="white"/>
</svg>
