<svg width="40" height="32" viewBox="0 0 40 32" fill="none" xmlns="http://www.w3.org/2000/svg">
<path fill-rule="evenodd" clip-rule="evenodd" d="M4.74333 6.52832C4.79333 6.03286 4.605 5.54411 4.23833 5.21157L0.505 0.676849V0H12.1017L21.065 19.81L28.945 0H40V0.676849L36.8067 3.76214C36.5317 3.97376 36.395 4.32142 36.4517 4.66572V27.336C36.395 27.6786 36.5317 28.0262 36.8067 28.2379L39.925 31.3232V32H24.2383V31.3232L27.47 28.1623C27.7867 27.8432 27.7867 27.7491 27.7867 27.2604V8.93676L18.805 31.9261H17.5917L7.13333 8.93676V24.3447C7.04667 24.9913 7.26 25.6447 7.71167 26.1116L11.9133 31.2476V31.9261H0V31.2476L4.20167 26.1116C4.65167 25.643 4.85167 24.9863 4.74333 24.3447V6.52832Z" fill="white"/>
</svg>
