<svg width="48" height="39" viewBox="0 0 48 39" fill="none" xmlns="http://www.w3.org/2000/svg">
<path d="M22.0866 24.4632C26.468 20.4945 30.3346 16.8964 34.5338 12.8287C35.176 12.2064 35.6379 11.6943 36.01 10.9943C36.1438 10.7426 36.3209 10.2893 36.2413 10.0276C35.931 9.00461 32.9047 10.9417 32.4441 11.2454C28.2906 13.9884 22.2943 17.957 14.4553 23.1509C14.3237 23.2382 14.0491 23.3442 13.6315 23.469C12.0815 23.9317 10.2491 23.6869 8.70542 23.2229C6.67475 22.6123 4.12249 21.8019 1.04865 20.7919C0.677219 20.6698 0.222324 20.2403 0.0821602 19.864C-0.423067 18.5104 1.52712 17.5569 2.51273 17.1575C11.8468 13.3772 21.1811 9.5971 30.5156 5.81723C34.8536 4.06044 39.1694 2.25419 43.5145 0.511805C45.838 -0.41918 48.3176 -0.333406 47.9666 2.93787C47.7869 4.61139 47.5257 6.27802 47.2658 7.9409C46.8332 10.7082 46.4222 13.4792 45.9756 16.244C44.9236 22.7586 43.8683 29.2728 42.8098 35.7865C42.6448 36.7995 42.2613 37.8608 41.4458 38.4893C39.6498 39.8736 36.4241 38.1168 34.8294 37.0813C31.1839 34.7122 27.5192 32.3788 23.9763 29.8613C23.2551 29.3485 22.5721 28.8226 21.9261 28.2936C21.6674 28.082 21.4518 27.8363 21.2794 27.5567C20.5187 26.3221 21.1482 25.3128 22.0866 24.4632Z" fill="#E7E7E8"/>
</svg>